<svg width="17" height="21" viewBox="0 0 17 21" fill="none" xmlns="http://www.w3.org/2000/svg">
<path fill-rule="evenodd" clip-rule="evenodd" d="M12.2309 0.195312C12.4089 1.40417 11.9168 2.58846 11.2677 3.42635C10.5733 4.32509 9.37633 5.02022 8.21658 4.98394C8.00487 3.82657 8.54694 2.6341 9.20649 1.83248C9.93003 0.947778 11.17 0.269038 12.2309 0.195312ZM15.7146 17.2114C16.3125 16.2951 16.5359 15.8329 17 14.7984C13.6243 13.5146 13.0834 8.71544 16.4242 6.87348C15.4052 5.59558 13.9733 4.85482 12.6216 4.85482C11.6476 4.85482 10.9803 5.10898 10.3737 5.34004C9.86813 5.53259 9.40471 5.70909 8.84106 5.70909C8.23197 5.70909 7.69259 5.5157 7.1278 5.3132C6.50719 5.09068 5.85591 4.85716 5.04775 4.85716C3.53089 4.85716 1.91632 5.78399 0.892671 7.3685C-0.546251 9.60015 -0.300809 13.7955 2.03264 17.3694C2.86668 18.6485 3.98106 20.0855 5.4386 20.0984C6.04338 20.1044 6.44583 19.9239 6.88134 19.7285C7.37981 19.505 7.9216 19.262 8.85967 19.257C9.80328 19.2513 10.3365 19.4973 10.8284 19.7241C11.2527 19.9199 11.6462 20.1014 12.2459 20.0949C13.7046 20.0832 14.8806 18.4905 15.7146 17.2114Z" fill="#0B0B0A"/>
</svg>
