<svg width="34" height="25" viewBox="0 0 34 25" fill="none" xmlns="http://www.w3.org/2000/svg">
<path fill-rule="evenodd" clip-rule="evenodd" d="M28.5025 6.00053H24.0021V0H3.00027C1.35012 0 0 1.35012 0 3.00027V19.5017H3.00027C3.00027 21.992 5.01044 24.0021 7.50067 24.0021C9.99089 24.0021 12.0011 21.992 12.0011 19.5017H21.0019C21.0019 21.992 23.012 24.0021 25.5023 24.0021C27.9925 24.0021 30.0027 21.992 30.0027 19.5017H33.0029V12.0011L28.5025 6.00053ZM27.7523 8.25098L30.6925 12.0013H24.002V8.25098H27.7523ZM6 19.5021C6 20.3272 6.67506 21.0022 7.50013 21.0022C8.32521 21.0022 9.00027 20.3272 9.00027 19.5021C9.00027 18.677 8.32521 18.002 7.50013 18.002C6.67506 18.002 6 18.677 6 19.5021ZM10.8317 16.5022C10.0066 15.5871 8.83649 15.002 7.50138 15.002C6.16626 15.002 4.99615 15.5871 4.17108 16.5022H3.00098V3.00098H21.0026V16.5022H10.8317ZM24.002 19.5021C24.002 20.3272 24.677 21.0022 25.5021 21.0022C26.3272 21.0022 27.0022 20.3272 27.0022 19.5021C27.0022 18.677 26.3272 18.002 25.5021 18.002C24.677 18.002 24.002 18.677 24.002 19.5021Z" fill="black"/>
</svg>
