<svg width="35" height="35" viewBox="0 0 35 35" fill="none" xmlns="http://www.w3.org/2000/svg">
<rect x="1" y="1" width="32.949" height="32.949" rx="16.4745" stroke="#222222" stroke-width="2"/>
<path fill-rule="evenodd" clip-rule="evenodd" d="M20.2711 10.4844H14.6792C12.363 10.4844 10.4854 12.362 10.4854 14.6783V20.2701C10.4854 22.5863 12.363 24.464 14.6792 24.464H20.2711C22.5873 24.464 24.4649 22.5863 24.4649 20.2701V14.6783C24.4649 12.362 22.5873 10.4844 20.2711 10.4844ZM11.8833 14.6783C11.8833 13.1341 13.1351 11.8823 14.6792 11.8823H20.2711C21.8152 11.8823 23.067 13.1341 23.067 14.6783V20.2701C23.067 21.8142 21.8152 23.066 20.2711 23.066H14.6792C13.1351 23.066 11.8833 21.8142 11.8833 20.2701V14.6783ZM17.4751 20.9691C15.545 20.9691 13.9802 19.4044 13.9802 17.4742C13.9802 15.544 15.545 13.9793 17.4751 13.9793C19.4053 13.9793 20.97 15.544 20.97 17.4742C20.97 19.4044 19.4053 20.9691 17.4751 20.9691ZM17.4751 19.5711C18.6333 19.5711 19.5721 18.6323 19.5721 17.4742C19.5721 16.3161 18.6333 15.3772 17.4751 15.3772C16.317 15.3772 15.3782 16.3161 15.3782 17.4742C15.3782 18.6323 16.317 19.5711 17.4751 19.5711ZM21.669 13.9793C21.669 14.3653 21.3561 14.6783 20.97 14.6783C20.584 14.6783 20.2711 14.3653 20.2711 13.9793C20.2711 13.5932 20.584 13.2803 20.97 13.2803C21.3561 13.2803 21.669 13.5932 21.669 13.9793Z" fill="#222222"/>
</svg>
