<svg width="22" height="22" viewBox="0 0 22 22" fill="none" xmlns="http://www.w3.org/2000/svg">
<path fill-rule="evenodd" clip-rule="evenodd" d="M12.5317 8.90167L21.6117 17.9817C22.0117 18.3817 22.0117 19.0117 21.6117 19.3917L19.3117 21.6917C18.9217 22.0817 18.2917 22.0817 17.9017 21.6917L8.79167 12.5817C6.47167 13.4517 3.76167 12.9617 1.90167 11.1017C-0.39833 8.81167 -0.60833 5.22167 1.25167 2.68167L5.08167 6.51167L6.50167 5.10167L2.66167 1.25167C5.21167 -0.60833 8.79167 -0.39833 11.0917 1.90167C12.9817 3.80167 13.4617 6.56167 12.5317 8.90167ZM9.15165 10.1217L18.6117 19.5817L19.4917 18.6917L10.0417 9.24166C10.5017 8.65166 10.8017 7.99166 10.9217 7.28166C11.1717 5.89166 10.7617 4.40166 9.68165 3.32166C8.73165 2.38166 7.48165 1.94166 6.24165 2.01166L9.33165 5.10166L5.09165 9.34167L2.00165 6.25167C1.93165 7.49166 2.37165 8.75167 3.32165 9.69166C4.36165 10.7317 5.79165 11.1417 7.15165 10.9417C7.86165 10.8417 8.54165 10.5717 9.15165 10.1217Z" fill="#159586"/>
</svg>
