<svg width="24" height="14" viewBox="0 0 24 14" fill="none" xmlns="http://www.w3.org/2000/svg">
<path d="M21.6397 7.50896C21.9212 7.98409 22.5347 8.14102 23.0098 7.85947C23.4849 7.57793 23.6418 6.96452 23.3603 6.48939L21.6397 7.50896ZM0.241 6.34808C-0.118587 6.76727 -0.0702747 7.39858 0.348909 7.75817C0.768094 8.11776 1.39941 8.06945 1.759 7.65026L0.241 6.34808ZM23.3603 6.48939C21.989 4.17527 18.7716 1.21227 14.5909 0.287719C10.3023 -0.660689 5.19322 0.575099 0.241 6.34808L1.759 7.65026C6.30678 2.34875 10.6977 1.47506 14.1591 2.24054C17.7284 3.02987 20.511 5.60412 21.6397 7.50896L23.3603 6.48939Z" fill="#111111"/>
<path d="M21.6397 6.49104C21.9212 6.01591 22.5347 5.85898 23.0098 6.14053C23.4849 6.42207 23.6418 7.03548 23.3603 7.51061L21.6397 6.49104ZM0.241 7.65192C-0.118587 7.23273 -0.0702747 6.60142 0.348909 6.24183C0.768094 5.88224 1.39941 5.93055 1.759 6.34974L0.241 7.65192ZM23.3603 7.51061C21.989 9.82473 18.7716 12.7877 14.5909 13.7123C10.3023 14.6607 5.19322 13.4249 0.241 7.65192L1.759 6.34974C6.30678 11.6513 10.6977 12.5249 14.1591 11.7595C17.7284 10.9701 20.511 8.39588 21.6397 6.49104L23.3603 7.51061Z" fill="#111111"/>
<circle cx="12" cy="7" r="3" stroke="#111111" stroke-width="2"/>
</svg>
