<svg width="30" height="27" viewBox="0 0 30 27" fill="none" xmlns="http://www.w3.org/2000/svg">
<path fill-rule="evenodd" clip-rule="evenodd" d="M22.245 3H27C28.65 3 30 4.35 30 6V24C30 25.65 28.65 27 27 27H3C1.35 27 0 25.65 0 24V6C0 4.35 1.35 3 3 3H7.755L10.5 0H19.5L22.245 3ZM3.00085 24.001H27.0009V6.00098H20.9259L20.0409 5.02598L18.1809 3.00098H11.8209L9.96085 5.02598L9.07586 6.00098H3.00085V24.001ZM15.0002 7.5C10.8602 7.5 7.50024 10.86 7.50024 15C7.50024 19.14 10.8602 22.5 15.0002 22.5C19.1402 22.5 22.5002 19.14 22.5002 15C22.5002 10.86 19.1402 7.5 15.0002 7.5ZM10.2019 14.9997C10.2019 17.6547 12.3469 19.7997 15.0019 19.7997C17.6569 19.7997 19.8019 17.6547 19.8019 14.9997C19.8019 12.3447 17.6569 10.1997 15.0019 10.1997C12.3469 10.1997 10.2019 12.3447 10.2019 14.9997Z" fill="black"/>
</svg>
