<svg width="16" height="16" viewBox="0 0 16 16" fill="none" xmlns="http://www.w3.org/2000/svg">
<path d="M7.99969 3.09333C9.50192 3.09333 10.5153 3.74222 11.093 4.28444L13.3508 2.08C11.9641 0.791111 10.1597 0 7.99969 0C4.87081 0 2.16858 1.79556 0.853027 4.40889L3.43969 6.41778C4.08858 4.48889 5.88414 3.09333 7.99969 3.09333Z" fill="#EA4335"/>
<path d="M15.68 8.17852C15.68 7.52075 15.6267 7.04075 15.5111 6.54297H8V9.51186H12.4089C12.32 10.2496 11.84 11.3607 10.7733 12.1074L13.2978 14.063C14.8089 12.6674 15.68 10.6141 15.68 8.17852Z" fill="#4285F4"/>
<path d="M3.44889 9.58349C3.28 9.08571 3.18222 8.55238 3.18222 8.00127C3.18222 7.45016 3.28 6.91682 3.44 6.41905L0.853333 4.41016C0.311111 5.4946 0 6.71238 0 8.00127C0 9.29016 0.311111 10.5079 0.853333 11.5924L3.44889 9.58349Z" fill="#FBBC05"/>
<path d="M8.00008 15.9998C10.1601 15.9998 11.9734 15.2887 13.2979 14.062L10.7734 12.1065C10.0979 12.5776 9.19119 12.9065 8.00008 12.9065C5.88453 12.9065 4.08897 11.5109 3.44897 9.58203L0.862305 11.5909C2.17786 14.2043 4.87119 15.9998 8.00008 15.9998Z" fill="#34A853"/>
</svg>
