<svg width="21" height="21" viewBox="0 0 21 21" fill="none" xmlns="http://www.w3.org/2000/svg">
<circle cx="10.5" cy="10.5" r="9.75" stroke="black" stroke-width="1.5"/>
<circle cx="10.6367" cy="9.5" r="3.75" stroke="black" stroke-width="1.5"/>
<path fill-rule="evenodd" clip-rule="evenodd" d="M3.26225 18.1068L4.00012 17C5.25762 14.6211 7.75703 13 10.6351 13C13.5131 13 16.0125 14.6211 17.27 17L17.8713 17.9777C16.7434 19.0896 15.3651 19.9483 13.8286 20.4615L16.4848 18.5865L15.9923 17.7858L15.9667 17.7442L15.9439 17.701C14.9359 15.7941 12.9354 14.5 10.6351 14.5C8.33473 14.5 6.33425 15.7941 5.32625 17.701L5.29056 17.7685L5.2482 17.8321L4.95647 18.2696L7.39386 20.5329C5.82861 20.0489 4.41983 19.2086 3.26225 18.1068Z" fill="black"/>
</svg>
