<svg width="19" height="19" viewBox="0 0 19 19" fill="none" xmlns="http://www.w3.org/2000/svg">
<path fill-rule="evenodd" clip-rule="evenodd" d="M12.6668 1.5835H6.3335C3.71014 1.5835 1.5835 3.71014 1.5835 6.3335V12.6668C1.5835 15.2902 3.71014 17.4168 6.3335 17.4168H12.6668C15.2902 17.4168 17.4168 15.2902 17.4168 12.6668V6.3335C17.4168 3.71014 15.2902 1.5835 12.6668 1.5835ZM3.16683 6.3335C3.16683 4.58459 4.58459 3.16683 6.3335 3.16683H12.6668C14.4157 3.16683 15.8335 4.58459 15.8335 6.3335V12.6668C15.8335 14.4157 14.4157 15.8335 12.6668 15.8335H6.3335C4.58459 15.8335 3.16683 14.4157 3.16683 12.6668V6.3335ZM9.50016 13.4585C7.31403 13.4585 5.54183 11.6863 5.54183 9.50016C5.54183 7.31403 7.31403 5.54183 9.50016 5.54183C11.6863 5.54183 13.4585 7.31403 13.4585 9.50016C13.4585 11.6863 11.6863 13.4585 9.50016 13.4585ZM9.50016 11.8752C10.8118 11.8752 11.8752 10.8118 11.8752 9.50016C11.8752 8.18849 10.8118 7.12516 9.50016 7.12516C8.18849 7.12516 7.12516 8.18849 7.12516 9.50016C7.12516 10.8118 8.18849 11.8752 9.50016 11.8752ZM14.2502 5.54183C14.2502 5.97905 13.8957 6.3335 13.4585 6.3335C13.0213 6.3335 12.6668 5.97905 12.6668 5.54183C12.6668 5.1046 13.0213 4.75016 13.4585 4.75016C13.8957 4.75016 14.2502 5.1046 14.2502 5.54183Z" fill="#8E8E8E"/>
</svg>
