<svg width="19" height="18" viewBox="0 0 19 18" fill="none" xmlns="http://www.w3.org/2000/svg">
<path fill-rule="evenodd" clip-rule="evenodd" d="M12.418 1.5H6.41797C3.93269 1.5 1.91797 3.51472 1.91797 6V12C1.91797 14.4853 3.93269 16.5 6.41797 16.5H12.418C14.9032 16.5 16.918 14.4853 16.918 12V6C16.918 3.51472 14.9032 1.5 12.418 1.5ZM3.41797 6C3.41797 4.34315 4.76111 3 6.41797 3H12.418C14.0748 3 15.418 4.34315 15.418 6V12C15.418 13.6569 14.0748 15 12.418 15H6.41797C4.76111 15 3.41797 13.6569 3.41797 12V6ZM9.41797 12.75C7.3469 12.75 5.66797 11.0711 5.66797 9C5.66797 6.92893 7.3469 5.25 9.41797 5.25C11.489 5.25 13.168 6.92893 13.168 9C13.168 11.0711 11.489 12.75 9.41797 12.75ZM9.41797 11.25C10.6606 11.25 11.668 10.2426 11.668 9C11.668 7.75736 10.6606 6.75 9.41797 6.75C8.17533 6.75 7.16797 7.75736 7.16797 9C7.16797 10.2426 8.17533 11.25 9.41797 11.25ZM13.918 5.25C13.918 5.66421 13.5822 6 13.168 6C12.7538 6 12.418 5.66421 12.418 5.25C12.418 4.83579 12.7538 4.5 13.168 4.5C13.5822 4.5 13.918 4.83579 13.918 5.25Z" fill="#222222"/>
</svg>
