<svg width="198" height="47" viewBox="0 0 198 47" fill="none" xmlns="http://www.w3.org/2000/svg">
<path fill-rule="evenodd" clip-rule="evenodd" d="M167.155 30.2398C167.155 29.6228 167.251 29.1008 167.393 28.5788C167.535 28.1038 167.725 27.7248 167.962 27.3918C168.199 27.1068 168.484 26.9648 168.816 26.9648C169.243 26.9648 169.48 27.1548 169.623 27.5348C169.766 27.9618 169.766 28.4838 169.671 29.1008C169.576 29.7178 169.386 30.4298 169.101 31.2368C168.817 32.0438 168.485 32.8028 168.057 33.5628C167.82 33.1358 167.582 32.6608 167.44 32.1388C167.251 31.5218 167.155 30.8578 167.155 30.2398ZM167.393 34.7018C166.776 35.6988 166.111 36.5538 165.399 37.1708C164.687 37.8358 164.07 38.1198 163.453 38.0248C163.026 37.9768 162.789 37.5978 162.741 36.9328C162.693 36.3158 162.836 35.5558 163.073 34.6548C163.31 33.7528 163.642 32.8508 164.118 31.9488C164.593 31.0468 165.162 30.2398 165.779 29.6228C165.732 30.0498 165.684 30.5248 165.732 30.9998C165.779 31.4748 165.874 31.9488 166.016 32.3758C166.302 33.2778 166.776 34.0858 167.393 34.7018ZM169.861 35.0818C169.672 35.0348 169.481 34.9388 169.34 34.8448C169.861 33.9908 170.289 33.0888 170.621 32.1388C170.953 31.1888 171.096 30.2868 171.096 29.4808C171.049 28.6738 170.859 27.9618 170.432 27.3448C170.004 26.7748 169.34 26.4428 168.438 26.3008C168.011 26.2538 167.584 26.3478 167.251 26.5858C166.919 26.8708 166.586 27.2508 166.349 27.6768C166.302 27.6768 166.254 27.6768 166.254 27.6768C166.206 27.7248 166.159 27.7248 166.111 27.7248C165.494 27.8668 164.924 28.1998 164.45 28.6738C163.928 29.1488 163.501 29.6708 163.121 30.2398C162.741 30.8568 162.457 31.4738 162.219 32.0918C161.982 32.7558 161.792 33.3258 161.698 33.8478C161.555 34.8448 161.508 35.6518 161.555 36.2678C161.603 36.9328 161.792 37.4548 162.03 37.8348C162.267 38.2138 162.552 38.4998 162.932 38.6418C163.264 38.8318 163.691 38.9268 164.119 38.9268C164.926 38.9268 165.733 38.5938 166.54 37.9768C167.347 37.3598 168.106 36.6008 168.818 35.6508C169.293 35.8878 169.862 35.9838 170.574 35.9838C171.191 35.9358 171.762 35.7938 172.236 35.5088C172.711 35.2238 173.137 34.8918 173.469 34.5598C173.849 34.1798 174.181 33.7528 174.514 33.2308H173.612C173.328 33.6578 172.995 33.9898 172.663 34.3228C172.378 34.5598 172.046 34.7978 171.666 34.9878C171.286 35.2248 170.907 35.2728 170.479 35.2248C170.241 35.1768 170.004 35.1298 169.861 35.0818Z" fill="black"/>
<path fill-rule="evenodd" clip-rule="evenodd" d="M191.269 30.3823C190.936 30.9043 190.604 31.4743 190.176 32.0913C189.749 32.7083 189.275 33.3723 188.752 34.0373C188.231 34.7493 187.756 35.3663 187.233 35.8883C186.711 36.4583 186.284 36.9323 185.856 37.2643C185.429 37.6443 185.049 37.8343 184.717 37.8343C184.622 37.8343 184.574 37.7873 184.574 37.6443C184.574 37.4073 184.669 36.9793 184.859 36.3623C185.048 35.7453 185.334 35.0803 185.666 34.3213C185.998 33.5613 186.378 32.7543 186.805 31.9473C187.233 31.1403 187.707 30.3813 188.182 29.6683C188.657 29.0043 189.131 28.4343 189.654 28.0073C190.175 27.5803 190.651 27.3423 191.078 27.3423C191.315 27.3423 191.458 27.4373 191.6 27.6273C191.695 27.8163 191.789 28.0543 191.837 28.2913C191.885 28.5763 191.932 28.9083 191.932 29.2413C191.791 29.4803 191.601 29.8603 191.269 30.3823ZM191.411 37.4073C191.459 36.9803 191.601 36.4583 191.839 35.8413C192.028 35.2243 192.266 34.5593 192.599 33.7993C192.883 33.0403 193.168 32.3283 193.5 31.6153C193.785 30.9033 194.069 30.2863 194.307 29.7173C194.545 29.1953 194.687 28.8153 194.783 28.6253C194.83 28.4353 194.783 28.2923 194.687 28.1503C194.592 28.0073 194.45 27.9133 194.307 27.8173C194.118 27.7223 193.928 27.6283 193.786 27.5803C193.643 27.5333 193.501 27.5333 193.406 27.5803C193.358 27.6283 193.169 27.9133 192.789 28.4823C192.741 28.0553 192.552 27.6283 192.267 27.1533C191.935 26.7263 191.318 26.4883 190.416 26.4883C189.324 26.4883 188.327 26.8683 187.425 27.6283C186.524 28.3873 185.716 29.2893 185.052 30.3813C184.34 31.4733 183.818 32.5653 183.486 33.7513C183.106 34.9383 182.917 35.9353 182.964 36.7423C183.012 37.7393 183.344 38.4033 183.961 38.7363C184.436 38.9733 184.958 38.9733 185.575 38.6893C186.192 38.4043 186.762 37.9293 187.379 37.3123C187.995 36.6953 188.566 35.9833 189.183 35.1763C189.8 34.3693 190.322 33.5623 190.796 32.7553C190.512 33.4673 190.275 34.1793 190.084 34.8913C189.895 35.6033 189.8 36.2673 189.8 36.8373C189.752 37.4073 189.847 37.8813 190.084 38.2613C190.274 38.6883 190.606 38.9263 191.129 38.9733C191.698 39.0683 192.268 38.9263 192.838 38.5463C193.359 38.2133 193.93 37.7393 194.451 37.1223C194.973 36.5523 195.496 35.8883 196.017 35.1763C196.539 34.4643 197.014 33.8473 197.442 33.2303H196.54C195.78 34.2273 195.164 35.0343 194.642 35.6513C194.12 36.2683 193.597 36.7903 193.028 37.2653C192.459 37.7873 191.984 38.0253 191.604 38.0253C191.411 38.0253 191.364 37.8353 191.411 37.4073Z" fill="black"/>
<path fill-rule="evenodd" clip-rule="evenodd" d="M177.457 26.9642C177.361 26.6322 177.172 26.4892 176.935 26.4892C176.745 26.4892 176.507 26.6792 176.27 27.0112C175.986 27.3432 175.701 27.8182 175.416 28.3402C175.132 28.8622 174.847 29.4322 174.609 30.0482C174.325 30.6652 174.087 31.2352 173.945 31.7572C173.565 32.9912 173.375 34.0832 173.328 34.9852C173.28 35.8872 173.28 36.6462 173.423 37.2632C173.566 37.8802 173.755 38.3552 173.992 38.6392C174.229 38.9242 174.514 39.0662 174.752 39.0662C175.369 39.0192 176.033 38.7342 176.841 38.1652C177.601 37.6432 178.36 36.9312 179.167 36.0762C179.974 35.2222 180.733 34.2722 181.492 33.1802C182.204 32.0892 182.869 31.0442 183.438 29.9522C183.96 28.8602 184.387 27.8632 184.672 26.8672C184.909 25.9182 184.957 25.1112 184.815 24.4462C184.767 24.2092 184.672 24.0192 184.53 23.8762C184.387 23.7342 184.198 23.5912 184.009 23.4492C183.771 23.3072 183.533 23.2122 183.201 23.1172C183.344 23.8292 183.249 24.6362 182.964 25.6332C182.679 26.6302 182.3 27.6742 181.777 28.7662C181.255 29.8572 180.637 30.9502 179.925 32.0412C179.213 33.1332 178.549 34.1302 177.932 34.9842C177.267 35.8862 176.65 36.5982 176.127 37.1202C175.606 37.6892 175.178 37.9742 174.94 37.9742C174.751 38.0692 174.656 37.9272 174.608 37.5472C174.56 37.2142 174.608 36.6922 174.703 36.0752C174.798 35.4582 174.94 34.7932 175.178 33.9862C175.368 33.1792 175.606 32.4202 175.843 31.6122C176.08 30.8532 176.365 30.1412 176.697 29.4292C176.982 28.7642 177.266 28.2422 177.551 27.8152C177.552 27.5812 177.504 27.2972 177.457 26.9642Z" fill="black"/>
<path fill-rule="evenodd" clip-rule="evenodd" d="M167.155 30.2398C167.155 29.6228 167.251 29.1008 167.393 28.5788C167.535 28.1038 167.725 27.7248 167.962 27.3918C168.199 27.1068 168.484 26.9648 168.816 26.9648C169.243 26.9648 169.48 27.1548 169.623 27.5348C169.766 27.9618 169.766 28.4838 169.671 29.1008C169.576 29.7178 169.386 30.4298 169.101 31.2368C168.817 32.0438 168.485 32.8028 168.057 33.5628C167.82 33.1358 167.582 32.6608 167.44 32.1388C167.251 31.5218 167.155 30.8578 167.155 30.2398ZM167.393 34.7018C166.776 35.6988 166.111 36.5538 165.399 37.1708C164.687 37.8358 164.07 38.1198 163.453 38.0248C163.026 37.9768 162.789 37.5978 162.741 36.9328C162.693 36.3158 162.836 35.5558 163.073 34.6548C163.31 33.7528 163.642 32.8508 164.118 31.9488C164.593 31.0468 165.162 30.2398 165.779 29.6228C165.732 30.0498 165.684 30.5248 165.732 30.9998C165.779 31.4748 165.874 31.9488 166.016 32.3758C166.302 33.2778 166.776 34.0858 167.393 34.7018ZM169.861 35.0818C169.672 35.0348 169.481 34.9388 169.34 34.8448C169.861 33.9908 170.289 33.0888 170.621 32.1388C170.953 31.1888 171.096 30.2868 171.096 29.4808C171.049 28.6738 170.859 27.9618 170.432 27.3448C170.004 26.7748 169.34 26.4428 168.438 26.3008C168.011 26.2538 167.584 26.3478 167.251 26.5858C166.919 26.8708 166.586 27.2508 166.349 27.6768C166.302 27.6768 166.254 27.6768 166.254 27.6768C166.206 27.7248 166.159 27.7248 166.111 27.7248C165.494 27.8668 164.924 28.1998 164.45 28.6738C163.928 29.1488 163.501 29.6708 163.121 30.2398C162.741 30.8568 162.457 31.4738 162.219 32.0918C161.982 32.7558 161.792 33.3258 161.698 33.8478C161.555 34.8448 161.508 35.6518 161.555 36.2678C161.603 36.9328 161.792 37.4548 162.03 37.8348C162.267 38.2138 162.552 38.4998 162.932 38.6418C163.264 38.8318 163.691 38.9268 164.119 38.9268C164.926 38.9268 165.733 38.5938 166.54 37.9768C167.347 37.3598 168.106 36.6008 168.818 35.6508C169.293 35.8878 169.862 35.9838 170.574 35.9838C171.191 35.9358 171.762 35.7938 172.236 35.5088C172.711 35.2238 173.137 34.8918 173.469 34.5598C173.849 34.1798 174.181 33.7528 174.514 33.2308H173.612C173.328 33.6578 172.995 33.9898 172.663 34.3228C172.378 34.5598 172.046 34.7978 171.666 34.9878C171.286 35.2248 170.907 35.2728 170.479 35.2248C170.241 35.1768 170.004 35.1298 169.861 35.0818Z" fill="black"/>
<path fill-rule="evenodd" clip-rule="evenodd" d="M158.99 28.4844C158.658 29.1964 158.23 30.0984 157.709 31.1434C157.187 32.1874 156.617 33.2794 156.095 34.4184C155.573 35.5104 155.241 36.4604 155.098 37.2194C155.05 37.7894 155.05 38.2164 155.193 38.5484C155.336 38.8804 155.715 39.0234 156.427 39.0234C156.996 39.0234 157.567 38.8334 158.136 38.4534C158.706 38.0744 159.276 37.5994 159.797 37.0294C160.319 36.4604 160.794 35.7954 161.317 35.1304C161.838 34.4184 162.314 33.8014 162.741 33.1844H161.839C161.127 34.1814 160.51 34.9884 159.988 35.6054C159.466 36.2224 158.943 36.7444 158.422 37.2664C157.852 37.7884 157.377 38.0264 156.997 38.0264C156.902 38.0264 156.902 37.9314 156.95 37.7894C157.235 36.9824 157.614 36.0804 158.042 35.1784C158.469 34.2764 158.896 33.4224 159.323 32.5204C159.751 31.6184 160.083 30.7644 160.415 29.9574C160.7 29.1504 160.843 28.4854 160.843 27.8684C160.843 27.3464 160.747 26.9194 160.606 26.6814C160.416 26.4444 160.037 26.3484 159.514 26.4444C158.612 26.5874 157.33 27.4884 155.716 29.1024C154.102 30.7164 152.394 32.8994 150.589 35.6534C150.542 35.7004 150.637 35.5104 150.827 35.1784C150.969 34.8454 151.206 34.3714 151.491 33.8494C151.776 33.3274 152.108 32.7104 152.44 32.0454C152.772 31.3804 153.057 30.7644 153.389 30.1474C153.722 29.5304 153.959 29.0084 154.197 28.5814C154.435 28.1544 154.577 27.8694 154.624 27.7274C154.767 27.3944 154.767 27.1574 154.672 26.9674C154.529 26.8254 154.387 26.6824 154.15 26.5884C153.913 26.4934 153.628 26.4454 153.201 26.3984C153.153 26.4454 153.106 26.5404 152.964 26.6834C152.822 26.8264 152.584 27.2534 152.204 27.9654C151.777 28.6774 151.255 29.8164 150.543 31.3354C149.831 32.8544 148.834 34.9904 147.647 37.7914C147.504 38.0764 147.504 38.3134 147.599 38.5034C147.647 38.6934 147.789 38.8354 148.026 38.8834C148.216 38.9784 148.454 39.0254 148.739 38.9784C148.976 38.9784 149.214 38.9314 149.451 38.8834C149.546 38.6934 149.831 38.2664 150.258 37.6014C150.686 36.9844 151.207 36.2254 151.824 35.3704C152.441 34.5154 153.106 33.6614 153.818 32.7124C154.53 31.7624 155.242 30.9084 155.954 30.1014C156.619 29.2944 157.236 28.6774 157.852 28.1554C158.422 27.6334 158.849 27.3954 159.181 27.3954C159.418 27.3924 159.322 27.7724 158.99 28.4844Z" fill="black"/>
<path fill-rule="evenodd" clip-rule="evenodd" d="M140.81 33.2332C141.285 32.5212 141.759 31.8092 142.187 31.1452C142.519 30.5752 142.899 30.0052 143.279 29.4362C143.659 28.9142 143.943 28.4862 144.18 28.1542C144.418 28.5812 144.702 28.7712 145.129 28.7712C145.509 28.7712 145.794 28.7232 145.937 28.6282C145.415 29.6252 144.94 30.6222 144.56 31.5242C144.228 32.3312 143.896 33.1852 143.611 33.9922C143.326 34.8462 143.136 35.6062 143.089 36.2232C143.042 37.1722 143.089 37.8842 143.279 38.3112C143.422 38.7862 143.896 39.0232 144.608 39.0232C144.94 39.0232 145.272 38.9282 145.7 38.6912C146.08 38.4532 146.459 38.1692 146.887 37.7892C147.267 37.4562 147.647 37.0292 148.026 36.6022C148.406 36.1752 148.739 35.7952 149.071 35.3682C149.308 35.0832 149.499 34.7982 149.688 34.5612C149.877 34.3242 150.068 34.0862 150.21 33.8962C150.352 33.6592 150.494 33.4692 150.637 33.2312H149.735C149.593 33.4212 149.499 33.6112 149.356 33.7532C149.119 34.1332 148.786 34.5132 148.454 34.9402C148.169 35.2732 147.885 35.6522 147.553 35.9852C147.22 36.3642 146.936 36.6962 146.603 36.9822C146.271 37.3142 145.939 37.5522 145.607 37.7422C145.274 37.9312 145.037 38.0272 144.799 38.0272C144.561 38.0272 144.515 37.7422 144.656 37.1732C144.799 36.6032 145.036 35.8912 145.369 34.9892C145.701 34.0872 146.128 33.1372 146.602 32.0462C147.077 31.0022 147.552 30.0052 148.026 29.0082C148.264 28.4862 148.359 28.1062 148.311 27.9162C148.216 27.7732 148.026 27.6782 147.79 27.6782C147.505 27.7262 147.173 27.7732 146.84 27.8682C146.46 28.0112 146.128 28.0582 145.796 28.1052C145.464 28.1532 145.227 28.1052 145.084 27.9632C144.894 27.8202 144.847 27.5362 144.989 27.1092C145.036 26.9662 145.131 26.7292 145.321 26.4442C145.464 26.2072 145.653 25.9222 145.796 25.6372C145.939 25.4002 146.128 25.1622 146.271 24.9252C146.414 24.7352 146.46 24.6402 146.46 24.5922C146.46 24.3552 146.413 24.1182 146.271 23.9282C146.129 23.7382 145.939 23.5482 145.796 23.4062C145.607 23.2642 145.416 23.1692 145.274 23.1212C145.085 23.0742 144.99 23.0742 144.942 23.1212C144.705 23.2642 144.421 23.5482 144.182 23.8802C143.898 24.2132 143.661 24.5922 143.518 25.0202C143.375 25.4472 143.281 25.9222 143.281 26.3492C143.281 26.7762 143.424 27.2042 143.661 27.5832C143.328 28.1052 142.948 28.6272 142.569 29.1972C142.236 29.7192 141.809 30.2882 141.381 31.0012C140.954 31.7132 140.432 32.4252 139.91 33.2322H140.81V33.2332Z" fill="black"/>
<path fill-rule="evenodd" clip-rule="evenodd" d="M140.429 23.7389C140.666 23.3589 140.857 22.9789 141.046 22.5519C141.236 22.1719 141.426 21.8399 141.568 21.5079C141.711 21.1749 141.757 20.9859 141.805 20.8909C141.853 20.8439 141.71 20.7009 141.473 20.5579C141.236 20.4159 140.904 20.3689 140.571 20.4629C140.334 20.5099 140.049 20.6999 139.811 21.0319C139.527 21.3649 139.29 21.7439 139.052 22.1719C138.815 22.5989 138.577 23.0259 138.435 23.4529C138.293 23.8799 138.15 24.2129 138.103 24.4499C138.055 24.5449 138.103 24.6869 138.198 24.8299C138.245 25.0199 138.387 25.1619 138.53 25.2569C138.673 25.3519 138.815 25.3519 139.052 25.3039C139.289 25.2559 139.527 25.1139 139.811 24.7819C140.003 24.4989 140.192 24.1659 140.429 23.7389Z" fill="black"/>
<path fill-rule="evenodd" clip-rule="evenodd" d="M134.877 37.3124C134.972 36.8854 135.162 36.2684 135.399 35.5564C135.636 34.8444 135.921 34.0854 136.253 33.2304C136.585 32.3764 136.965 31.5684 137.297 30.7624C137.629 30.0024 137.962 29.3384 138.246 28.7204C138.483 28.1514 138.674 27.7714 138.768 27.5334C138.816 27.3434 138.768 27.2014 138.673 27.0584C138.578 26.9154 138.436 26.8214 138.293 26.7254C138.104 26.6304 137.913 26.5354 137.771 26.4884C137.629 26.4414 137.487 26.4414 137.392 26.4884C137.345 26.5354 137.107 26.8214 136.775 27.4384C136.442 28.0554 136.063 28.7674 135.636 29.6684C135.209 30.5704 134.782 31.5204 134.402 32.5644C133.975 33.6084 133.69 34.6054 133.5 35.5074C133.31 36.4094 133.263 37.2164 133.405 37.8334C133.547 38.4984 133.927 38.8774 134.544 38.9724C135.114 39.0674 135.683 38.9254 136.253 38.5454C136.775 38.2124 137.345 37.7384 137.866 37.1214C138.388 36.5514 138.911 35.8874 139.432 35.1754C139.954 34.4634 140.429 33.8464 140.857 33.2294H139.955C139.196 34.2264 138.579 35.0334 138.057 35.6504C137.535 36.2674 137.013 36.7894 136.443 37.2644C135.874 37.7864 135.399 38.0244 135.019 38.0244C134.829 38.0254 134.782 37.7874 134.877 37.3124Z" fill="black"/>
<path fill-rule="evenodd" clip-rule="evenodd" d="M127.567 38.5956C127.662 38.8806 128.041 39.0226 128.753 39.0226C129.323 39.0226 129.893 38.8326 130.462 38.4526C131.031 38.0736 131.601 37.5986 132.123 37.0286C132.645 36.4596 133.12 35.8416 133.642 35.1296C134.164 34.4656 134.639 33.8486 135.066 33.2316H134.164C133.452 34.2286 132.835 35.0356 132.313 35.6526C131.791 36.2696 131.269 36.7916 130.747 37.2666C130.177 37.7886 129.703 38.0266 129.323 38.0266C129.228 38.0266 129.228 37.9316 129.276 37.7896C129.561 36.9826 129.941 36.0806 130.368 35.1786C130.795 34.2766 131.27 33.4226 131.697 32.5206C132.124 31.6666 132.457 30.8586 132.789 30.0516C133.121 29.2446 133.264 28.5806 133.264 27.9636C133.264 27.3466 133.074 26.8716 132.694 26.5876C132.267 26.3496 131.697 26.3496 130.986 26.5876C130.274 26.8246 129.372 27.3946 128.375 28.2956C127.331 29.1976 126.191 30.5266 124.91 32.2356C125.337 31.3336 125.669 30.5276 125.907 29.7676C126.144 29.0086 126.286 28.3916 126.286 27.8686C126.239 27.1566 126.001 26.6816 125.527 26.4446C125.052 26.2076 124.388 26.3496 123.485 26.8246C122.583 27.3466 121.539 28.2486 120.305 29.5306C119.071 30.8126 117.694 32.6636 116.175 34.9896C116.128 35.0366 116.27 34.7526 116.603 34.0406C116.935 33.3756 117.314 32.6166 117.742 31.7616C118.169 30.9076 118.549 30.1006 118.929 29.2936C119.309 28.4866 119.546 28.0116 119.641 27.8696C119.784 27.5376 119.784 27.3006 119.736 27.1106C119.641 26.9206 119.499 26.7776 119.356 26.6836C119.166 26.5886 118.881 26.4936 118.549 26.4466C118.502 26.4936 118.454 26.5896 118.312 26.7316C118.17 26.8746 117.932 27.3016 117.553 28.0136C117.126 28.7256 116.604 29.8646 115.891 31.3836C115.179 32.9026 114.182 35.0386 112.995 37.7926C112.852 38.0776 112.852 38.3146 112.947 38.5046C112.995 38.6946 113.137 38.8366 113.374 38.8846C113.564 38.9796 113.802 39.0266 114.086 38.9796C114.323 38.9796 114.561 38.9326 114.798 38.8846C114.893 38.6946 115.178 38.2676 115.605 37.6026C116.032 36.9856 116.554 36.2266 117.171 35.3716C117.788 34.5166 118.453 33.6156 119.165 32.6656C119.877 31.7166 120.542 30.8616 121.254 30.0546C121.919 29.2956 122.535 28.6306 123.105 28.1086C123.674 27.5866 124.149 27.3496 124.481 27.3496C124.671 27.3496 124.718 27.5396 124.671 27.8716C124.576 28.2046 124.386 28.6786 124.149 29.2016C123.911 29.7706 123.579 30.4356 123.247 31.1476C122.914 31.8596 122.535 32.6186 122.203 33.3306C121.871 34.0426 121.538 34.7546 121.254 35.4196C120.921 36.1316 120.732 36.7006 120.589 37.2236C120.447 37.6986 120.447 38.0776 120.589 38.4106C120.732 38.7436 121.064 38.9326 121.491 38.9326C121.538 38.9326 121.538 38.9326 121.538 38.8856V38.9326C121.538 38.8856 121.538 38.8856 121.586 38.8376C121.633 38.8376 121.633 38.7906 121.681 38.7426L121.776 38.5526C122.013 38.2196 122.393 37.6986 122.868 36.9866C123.343 36.2746 123.865 35.5146 124.482 34.6606C125.099 33.8536 125.716 32.9986 126.381 32.0976C127.046 31.2436 127.71 30.4356 128.327 29.7236C128.944 29.0116 129.514 28.4416 130.036 27.9676C130.558 27.5406 130.937 27.3026 131.27 27.3026C131.603 27.3026 131.603 27.6816 131.317 28.3946C130.985 29.1536 130.605 30.0556 130.083 31.1006C129.561 32.1926 129.039 33.2846 128.517 34.4236C127.995 35.6106 127.615 36.5596 127.473 37.3666C127.424 37.9306 127.424 38.3586 127.567 38.5956Z" fill="black"/>
<path fill-rule="evenodd" clip-rule="evenodd" d="M113.421 23.6892C113.896 23.8312 114.465 23.8312 115.082 23.6892C115.699 23.5462 116.412 23.3092 117.171 22.9292C117.93 22.5502 118.737 22.0272 119.544 21.3152C121.158 19.9382 122.582 18.4672 123.769 16.9002C124.956 15.3342 125.858 13.8152 126.427 12.2482C126.949 10.6812 127.139 9.21019 126.902 7.83319C126.664 6.45719 125.905 5.31719 124.671 4.36819C123.722 3.60819 122.535 3.08617 121.064 2.84817C119.592 2.61117 118.073 2.61117 116.412 2.80117C114.75 2.99117 113.089 3.37018 111.38 3.94018C109.671 4.55718 108.057 5.26917 106.586 6.17117C104.64 7.35817 102.931 8.68718 101.507 10.0642C100.083 11.4882 98.9436 12.9122 98.0416 14.2892C97.1396 15.7132 96.4746 17.0902 96.0476 18.3712C95.6206 19.7002 95.4786 20.8872 95.5726 21.8842C95.6676 22.8812 95.9516 23.8782 96.4746 24.8272C96.9496 25.8242 97.5666 26.7732 98.3256 27.7232C99.0376 28.6722 99.8926 29.6212 100.842 30.5712C101.791 31.5682 102.788 32.5172 103.785 33.5142C104.782 34.5112 105.589 35.4132 106.206 36.1252C106.775 36.8842 107.203 37.5492 107.487 38.0712C107.772 38.5932 107.962 39.0682 108.056 39.4002C108.104 39.7792 108.151 40.0652 108.151 40.3022C108.151 40.4922 108.056 40.8242 107.914 41.2512C107.772 41.7262 107.439 42.2012 107.012 42.6752C106.585 43.1972 105.968 43.6242 105.208 44.0512C104.448 44.4782 103.499 44.7162 102.312 44.8112C101.125 44.9062 99.9376 44.8112 98.7506 44.5262C97.5636 44.2412 96.5196 43.9092 95.5226 43.4822C94.5256 43.0552 93.7196 42.6752 93.0546 42.2482C92.3436 41.8682 91.9156 41.6312 91.6786 41.4882C91.2516 41.2512 90.9196 41.2032 90.6816 41.2512C90.5396 41.2992 90.4446 41.3462 90.3496 41.4412C90.9666 42.1062 91.7736 42.7232 92.8656 43.2922C93.9096 43.9092 95.0016 44.3842 96.1886 44.8122C97.3756 45.2392 98.5146 45.5712 99.6536 45.8092C100.794 46.0462 101.743 46.1892 102.455 46.1892C103.879 46.1892 105.113 45.9992 106.158 45.5722C107.202 45.1932 108.056 44.6702 108.721 44.0532C109.338 43.4362 109.765 42.6772 110.002 41.8692C110.24 41.0622 110.24 40.2552 110.002 39.4482C109.812 38.6412 109.48 37.8342 108.958 37.1222C108.436 36.4102 107.724 35.6502 106.916 34.7482C106.062 33.8942 105.065 32.8492 103.878 31.6632C102.691 30.4762 101.315 29.0052 99.7946 27.2482C98.8456 26.1082 98.2286 24.9222 97.9906 23.6882C97.7536 22.4542 97.7536 21.2192 98.0386 19.9852C98.2756 18.7982 98.7496 17.5642 99.4616 16.3772C100.174 15.1902 100.981 14.0992 101.931 13.0072C102.88 11.9152 103.925 10.9182 105.016 10.0162C106.107 9.11417 107.2 8.35518 108.291 7.69018C109.999 6.69318 111.709 5.88616 113.417 5.26916C115.126 4.69916 116.692 4.31918 118.117 4.08218C119.778 3.84518 121.107 3.94018 122.152 4.27218C123.196 4.65218 123.956 5.22217 124.478 5.93417C124.953 6.64617 125.19 7.54819 125.19 8.54419C125.143 9.54119 124.905 10.5862 124.43 11.6302C123.338 14.0982 122.057 16.0922 120.68 17.5632C119.303 19.0822 117.974 20.2692 116.74 21.0762C115.268 22.0732 113.797 22.7382 112.325 23.1182C112.567 23.4042 112.947 23.5942 113.421 23.6892Z" fill="black"/>
<path fill-rule="evenodd" clip-rule="evenodd" d="M7.74253 31.5809C7.60053 31.7229 7.41053 31.8179 7.17353 31.9599C6.98353 32.0549 6.74652 32.1499 6.46152 32.1969C6.12952 32.2919 5.74955 32.3399 5.32255 32.3399C4.89555 32.3399 4.51554 32.1969 4.08854 31.9599C3.66154 31.7229 3.32853 31.343 2.99653 30.868C2.66353 30.441 2.42654 29.871 2.28454 29.207C2.14154 28.59 2.09453 27.831 2.18953 27.023C2.28453 26.216 2.61652 25.124 3.13852 23.795C3.66052 22.466 4.42054 20.995 5.46454 19.38C6.50854 17.814 7.83852 16.1519 9.49952 14.3959C11.1615 12.6869 13.1545 11.025 15.4805 9.45897C16.4775 8.79397 17.5225 8.12995 18.6135 7.46495C19.7055 6.84795 20.7495 6.27796 21.7465 5.75596C22.7435 5.28096 23.5975 4.90195 24.3575 4.56895C25.1165 4.23595 25.6865 4.09394 26.0185 4.09394C26.4455 4.09394 26.7785 4.23595 26.9205 4.56895C27.0625 4.90095 27.0625 5.42296 26.8255 6.13496C26.7785 6.32496 26.4935 6.98895 26.0185 8.12895C25.4965 9.26795 24.8795 10.692 24.0725 12.449C23.2655 14.205 22.4115 16.151 21.4145 18.287C20.4175 20.471 19.3725 22.702 18.3295 24.933C15.9085 30.202 13.1555 36.088 10.1175 42.686C10.1175 42.923 10.1645 43.161 10.3075 43.351C10.4025 43.494 10.5445 43.684 10.7825 43.873C11.0195 44.063 11.3525 44.206 11.7795 44.3C14.6285 39.696 17.3815 35.2809 20.0395 31.056C21.1785 29.2519 22.3655 27.401 23.5525 25.502C24.7395 23.65 25.9265 21.799 27.0655 20.0429C28.2045 18.2869 29.2965 16.578 30.3405 15.011C31.3845 13.444 32.2865 12.115 33.0935 10.976C33.9945 9.64696 34.9445 8.41296 35.9415 7.22596C36.8915 6.08596 37.7935 5.08997 38.6475 4.23497C39.5015 3.37997 40.2615 2.71595 40.8785 2.19395C41.4955 1.71895 41.9225 1.48194 42.1605 1.52894C42.3035 1.52894 42.3505 1.71895 42.3035 2.09895C42.2555 2.47795 42.1135 3.09596 41.8285 3.90196C41.4965 4.70896 41.0695 5.80096 40.4525 7.13096C39.8355 8.45996 38.9805 10.0739 37.9365 12.0199C37.4145 13.0169 36.8455 14.061 36.2285 15.248C35.6115 16.435 34.9465 17.669 34.3295 18.951C33.6645 20.233 33.0005 21.5619 32.3835 22.8909C31.7185 24.2199 31.1015 25.5019 30.4845 26.7359C29.0605 29.6319 27.6365 32.622 26.1645 35.66C26.1175 35.85 26.1645 36.04 26.2595 36.182C26.3075 36.325 26.4495 36.467 26.5925 36.562C26.7355 36.705 26.9725 36.799 27.3045 36.847C30.2945 33.43 33.0475 30.297 35.5635 27.401C36.6555 26.167 37.6995 24.9329 38.7915 23.6979C39.8355 22.5109 40.8325 21.3719 41.7345 20.3269C42.6365 19.2829 43.4435 18.381 44.1555 17.621C44.8205 16.862 45.2945 16.2919 45.5795 15.9599C46.5285 14.9159 47.3355 14.0609 47.9535 13.3489C48.5705 12.6369 48.9505 12.3049 49.1405 12.3519C49.2355 12.3519 49.2825 12.4939 49.2355 12.7319C49.1885 12.9689 48.9985 13.397 48.7605 13.919C48.5235 14.489 48.1435 15.2009 47.6685 16.0549C47.1465 16.9569 46.5285 18.0009 45.7225 19.2359C45.2005 20.0429 44.5835 21.04 43.9665 22.226C43.3015 23.413 42.6375 24.647 41.9255 25.929C41.2135 27.258 40.5015 28.587 39.8365 29.916C39.1245 31.245 38.5075 32.479 37.9375 33.619C37.3685 34.758 36.8935 35.755 36.5135 36.61C36.0865 37.464 35.8485 38.081 35.7065 38.414C35.5635 38.841 35.4215 39.316 35.3265 39.743C35.1835 40.218 35.1835 40.645 35.2795 41.024C35.3265 41.451 35.5645 41.7839 35.8965 42.0679C36.2285 42.3529 36.7505 42.5429 37.4625 42.638C37.3675 42.305 37.3195 41.9729 37.2725 41.6409C37.2255 41.3089 37.2725 40.976 37.3195 40.55C37.3675 40.123 37.4625 39.695 37.6995 39.22C38.0315 38.461 38.6015 37.369 39.3605 35.897C40.1205 34.426 40.9745 32.8119 41.9715 31.0549C42.9215 29.2989 43.9175 27.4 45.0095 25.454C46.0535 23.508 47.0505 21.6559 47.9525 19.8519C48.8545 18.0479 49.6615 16.387 50.3735 14.915C51.0855 13.443 51.5605 12.304 51.7975 11.497C51.8455 11.354 51.7975 11.212 51.7505 11.022C51.7035 10.88 51.5615 10.6899 51.4185 10.5469C51.2285 10.4039 50.9915 10.2619 50.7535 10.1669C50.4685 10.0719 50.1365 10.0719 49.7565 10.1199C49.5665 10.1669 49.1865 10.453 48.5695 11.069C47.9525 11.686 47.1935 12.4459 46.2915 13.3949C45.3895 14.3919 44.3455 15.483 43.2535 16.67C42.1615 17.904 41.0225 19.186 39.9305 20.467C38.7915 21.749 37.6995 23.03 36.6075 24.264C35.5155 25.546 34.5655 26.685 33.7115 27.682C32.8095 28.679 32.0975 29.5329 31.5275 30.1979C30.9585 30.8629 30.6255 31.242 30.5305 31.385C30.5775 31.338 30.7675 30.91 31.1475 30.151C31.5265 29.392 32.0015 28.442 32.5715 27.35C33.1415 26.259 33.7585 25.024 34.4225 23.695C35.0395 22.413 35.7045 21.132 36.3215 19.945C36.9385 18.758 37.4615 17.666 37.9835 16.717C38.4585 15.815 38.7905 15.1509 38.9805 14.8179C39.1705 14.4859 39.4555 13.964 39.7875 13.252C40.1205 12.587 40.4525 11.8279 40.8315 10.9739C41.2115 10.1669 41.5905 9.26496 41.9705 8.36296C42.3505 7.46096 42.7295 6.65397 43.0625 5.84697C43.3945 5.03997 43.6795 4.37595 43.9165 3.75895C44.1535 3.18895 44.2965 2.80994 44.3435 2.57194C44.5325 2.04994 44.4385 1.47996 44.0585 0.957958C43.6785 0.435958 43.1085 0.103953 42.3025 0.00895304C41.9225 -0.038047 41.4475 0.103961 40.8305 0.341961C40.2135 0.578961 39.4535 1.14894 38.5515 1.95594C37.6495 2.80994 36.5575 3.99697 35.2765 5.56297C33.9945 7.12997 32.4275 9.17096 30.6725 11.687C30.1025 12.494 29.4855 13.443 28.8205 14.44C28.1085 15.437 27.4445 16.4819 26.7325 17.5729C26.0205 18.6649 25.3085 19.8039 24.5965 20.8959C23.8845 21.9879 23.2205 23.0799 22.5555 24.1239C21.0365 26.5439 19.4705 29.0609 17.9035 31.6239C17.8555 31.6719 18.0455 31.3399 18.4725 30.5329C18.8525 29.7739 19.3745 28.7289 19.9915 27.4479C20.6085 26.1659 21.3205 24.7419 22.1275 23.0809C22.9345 21.4669 23.6935 19.853 24.5005 18.192C25.2605 16.53 25.9725 14.964 26.6365 13.492C27.2535 12.021 27.7755 10.739 28.1555 9.74195C28.5355 8.74496 28.8205 7.89096 28.9625 7.22596C29.1045 6.56096 29.1995 6.03895 29.2475 5.61195C29.2945 5.23295 29.2475 4.94695 29.2005 4.75795C29.1525 4.56795 29.0575 4.42497 29.0105 4.32997C28.9635 4.23497 28.8685 4.09297 28.7255 3.90297C28.5835 3.76097 28.3935 3.57096 28.1565 3.38096C27.9195 3.23896 27.5865 3.09596 27.1595 2.95396C26.7325 2.85896 26.1625 2.81196 25.5455 2.81196C25.1185 2.81196 24.4535 2.95396 23.5515 3.23896C22.6495 3.52396 21.6055 3.95094 20.4185 4.51994C19.2315 5.08994 17.9025 5.80196 16.4785 6.60896C15.0545 7.41596 13.6305 8.36495 12.1585 9.45695C10.6875 10.549 9.26254 11.7829 7.83954 13.1119C6.41554 14.4889 5.08653 15.961 3.89953 17.574C1.66853 20.517 0.434529 23.128 0.102529 25.359C-0.230471 27.59 0.244538 29.5839 1.57354 31.3399C2.28554 32.2409 3.04553 32.859 3.94753 33.096C4.80153 33.381 5.56153 33.428 6.17853 33.285C6.79553 33.143 7.22252 32.9059 7.46052 32.6679C7.69752 32.43 7.79252 32.2399 7.79252 32.1459C7.79252 32.0989 7.79252 32.0029 7.79252 31.9559C7.74552 31.9089 7.74552 31.8609 7.74552 31.8139V31.5809H7.74253Z" fill="black"/>
<path fill-rule="evenodd" clip-rule="evenodd" d="M75.5759 23.5514C75.8129 23.1714 76.0029 22.7914 76.1929 22.3644C76.3829 21.9854 76.5729 21.6524 76.7149 21.3204C76.8569 20.9874 76.9049 20.7984 76.9519 20.7034C76.9989 20.6554 76.8569 20.5134 76.6189 20.3704C76.3819 20.2284 76.0499 20.1814 75.7169 20.2754C75.4799 20.3224 75.1949 20.5124 74.9579 20.8444C74.6729 21.1774 74.4359 21.5564 74.1989 21.9844C73.9609 22.4114 73.7239 22.8384 73.5819 23.2654C73.4389 23.6924 73.2969 24.0254 73.2489 24.2624C73.2019 24.3574 73.2489 24.4994 73.3439 24.6424C73.3919 24.8324 73.5339 24.9744 73.6769 25.0694C73.8199 25.1644 73.9619 25.1644 74.1989 25.1164C74.4359 25.0694 74.6729 24.9264 74.9579 24.5944C75.1489 24.3114 75.3389 23.9794 75.5759 23.5514Z" fill="black"/>
<path fill-rule="evenodd" clip-rule="evenodd" d="M70.0214 37.1249C70.1164 36.6979 70.3064 36.0809 70.5434 35.3689C70.7814 34.6579 71.0654 33.8979 71.3984 33.0429C71.7304 32.1889 72.1104 31.3809 72.4424 30.5749C72.7754 29.8149 73.1074 29.1509 73.3924 28.5329C73.6294 27.9639 73.8194 27.5839 73.9144 27.3459C73.9614 27.1559 73.9144 27.0139 73.8194 26.8709C73.7244 26.7279 73.5824 26.6339 73.4394 26.5379C73.2494 26.4429 73.0594 26.3479 72.9174 26.3009C72.7754 26.2539 72.6334 26.2539 72.5384 26.3009C72.4914 26.3479 72.2534 26.6339 71.9214 27.2509C71.5884 27.8679 71.2094 28.5799 70.7824 29.4809C70.3554 30.3829 69.9284 31.3329 69.5484 32.3769C69.1214 33.4209 68.8364 34.4179 68.6464 35.3199C68.4564 36.2219 68.4094 37.0289 68.5514 37.6459C68.6934 38.3109 69.0734 38.6899 69.6904 38.7849C70.2604 38.8799 70.8294 38.7379 71.3994 38.3579C71.9214 38.0259 72.4914 37.5509 73.0134 36.9339C73.5354 36.3639 74.0574 35.6999 74.5794 34.9879C75.1014 34.2759 75.5764 33.6589 76.0034 33.0419H75.1014C74.3424 34.0389 73.7254 34.8459 73.2034 35.4629C72.6814 36.0799 72.1594 36.6019 71.5894 37.0769C71.0204 37.5989 70.5454 37.8359 70.1654 37.8359C69.9744 37.8369 69.9264 37.5999 70.0214 37.1249Z" fill="black"/>
<path fill-rule="evenodd" clip-rule="evenodd" d="M60.3385 33.0428C60.8135 32.3308 61.2885 31.6188 61.7145 30.9538C62.0475 30.3848 62.4265 29.8148 62.8065 29.2448C63.1855 28.7228 63.4715 28.2958 63.7085 27.9638C63.9455 28.3908 64.2305 28.5808 64.6575 28.5808C65.0375 28.5808 65.3225 28.5328 65.4645 28.4378C64.9425 29.4348 64.4675 30.4318 64.0885 31.3338C63.7565 32.1408 63.4245 32.9948 63.1395 33.8018C62.8545 34.6568 62.6645 35.4158 62.6175 36.0328C62.5695 36.9818 62.6175 37.6938 62.8075 38.1208C62.9495 38.5958 63.4245 38.8328 64.1365 38.8328C64.4695 38.8328 64.8015 38.7378 65.2285 38.5008C65.6085 38.2628 65.9875 37.9788 66.4155 37.5988C66.7955 37.2658 67.1755 36.8398 67.5545 36.4118C67.9345 35.9848 68.2665 35.6048 68.5985 35.1778C68.8355 34.8928 69.0255 34.6078 69.2155 34.3708C69.4045 34.1338 69.5945 33.8958 69.7375 33.7058C69.8805 33.4688 70.0225 33.2788 70.1645 33.0408H69.2625C69.1205 33.2308 69.0255 33.4208 68.8825 33.5628C68.6455 33.9428 68.3135 34.3228 67.9805 34.7498C67.6955 35.0828 67.4115 35.4618 67.0785 35.7948C66.7465 36.1738 66.4615 36.5058 66.1295 36.7918C65.7965 37.1238 65.4645 37.3618 65.1325 37.5518C64.8005 37.7408 64.5635 37.8358 64.3255 37.8358C64.0885 37.8358 64.0415 37.5518 64.1835 36.9818C64.3255 36.4118 64.5635 35.6998 64.8955 34.7978C65.2285 33.8958 65.6545 32.9458 66.1295 31.8548C66.6045 30.8108 67.0785 29.8138 67.5535 28.8168C67.7905 28.2948 67.8865 27.9148 67.8385 27.7248C67.7435 27.5818 67.5535 27.4878 67.3165 27.4878C67.0315 27.5348 66.6995 27.5828 66.3675 27.6768C65.9875 27.8198 65.6555 27.8668 65.3235 27.9138C64.9915 27.9618 64.7535 27.9138 64.6115 27.7718C64.4215 27.6298 64.3745 27.3448 64.5165 26.9178C64.5645 26.7748 64.6595 26.5378 64.8495 26.2528C64.9925 26.0158 65.1825 25.7308 65.3245 25.4458C65.4665 25.2088 65.6565 24.9708 65.7995 24.7338C65.9425 24.5438 65.9895 24.4488 65.9895 24.4008C65.9895 24.1638 65.9425 23.9268 65.7995 23.7368C65.6565 23.5468 65.4665 23.3568 65.3245 23.2148C65.1345 23.0728 64.9445 22.9778 64.8025 22.9298C64.6125 22.8828 64.5175 22.8828 64.4695 22.9298C64.2325 23.0728 63.9475 23.3568 63.7105 23.6888C63.4255 24.0218 63.1885 24.4008 63.0455 24.8288C62.9025 25.2558 62.8085 25.7298 62.8085 26.1578C62.8085 26.5858 62.9505 27.0128 63.1875 27.3918C62.8555 27.9138 62.4755 28.4358 62.0965 29.0058C61.7635 29.5278 61.3365 30.0968 60.9095 30.8098C60.4825 31.5218 59.9605 32.2338 59.4375 33.0408H60.3385V33.0428Z" fill="black"/>
<path fill-rule="evenodd" clip-rule="evenodd" d="M54.1678 30.1948C53.8358 30.7168 53.5028 31.2868 53.0758 31.9038C52.6488 32.5208 52.1738 33.1848 51.6518 33.8498C51.1298 34.5618 50.6548 35.1788 50.1328 35.7008C49.6108 36.2698 49.1838 36.7448 48.7568 37.0768C48.3288 37.4568 47.9498 37.6468 47.6178 37.6468C47.5228 37.6468 47.4748 37.5998 47.4748 37.4568C47.4748 37.2198 47.5698 36.7918 47.7598 36.1748C47.9498 35.5578 48.2348 34.8928 48.5668 34.1338C48.8988 33.3738 49.2788 32.5678 49.7058 31.7608C50.1328 30.9528 50.6078 30.1938 51.0818 29.4818C51.5568 28.8178 52.0308 28.2488 52.5538 27.8208C53.0758 27.3938 53.5508 27.1558 53.9778 27.1558C54.2148 27.1558 54.3578 27.2508 54.4998 27.4408C54.5948 27.6308 54.6898 27.8678 54.7368 28.1048C54.7848 28.3898 54.8318 28.7218 54.8318 29.0548C54.6898 29.2928 54.4998 29.6728 54.1678 30.1948ZM54.3098 37.2198C54.3568 36.7928 54.4988 36.2698 54.7368 35.6538C54.9268 35.0368 55.1648 34.3718 55.4968 33.6118C55.7818 32.8528 56.0668 32.1408 56.3988 31.4278C56.6838 30.7158 56.9688 30.0988 57.2058 29.5298C57.4428 29.0078 57.5858 28.6278 57.6808 28.4378C57.7278 28.2488 57.6808 28.1048 57.5858 27.9628C57.4908 27.8198 57.3488 27.7258 57.2058 27.6308C57.0158 27.5358 56.8258 27.4408 56.6838 27.3928C56.5408 27.3458 56.3988 27.3458 56.3038 27.3928C56.2568 27.4408 56.0668 27.7258 55.6868 28.2948C55.6398 27.8678 55.4498 27.4408 55.1648 26.9658C54.8318 26.5388 54.2148 26.3008 53.3138 26.3008C52.2218 26.3008 51.2248 26.6808 50.3228 27.4408C49.4208 28.1998 48.6138 29.1018 47.9488 30.1938C47.2368 31.2858 46.7148 32.3778 46.3828 33.5638C46.0028 34.7508 45.8128 35.7478 45.8608 36.5548C45.9078 37.5518 46.2398 38.2158 46.8578 38.5488C47.3328 38.7858 47.8548 38.7858 48.4718 38.5018C49.0888 38.2168 49.6588 37.7418 50.2758 37.1248C50.8928 36.5078 51.4628 35.7958 52.0798 34.9888C52.6968 34.1818 53.2188 33.3748 53.6938 32.5678C53.4088 33.2798 53.1718 33.9918 52.9818 34.7038C52.7918 35.4158 52.6968 36.0808 52.6968 36.6498C52.6488 37.2198 52.7438 37.6938 52.9818 38.0738C53.1708 38.5008 53.5038 38.7388 54.0258 38.7858C54.5948 38.8808 55.1648 38.7388 55.7338 38.3588C56.2558 38.0268 56.8258 37.5518 57.3478 36.9348C57.8698 36.3648 58.3918 35.7008 58.9138 34.9888C59.4358 34.2768 59.9108 33.6598 60.3378 33.0428H59.4358C58.6768 34.0398 58.0598 34.8468 57.5368 35.4638C57.0148 36.0808 56.4928 36.6028 55.9228 37.0778C55.3528 37.5998 54.8788 37.8368 54.4988 37.8368C54.3098 37.8368 54.2628 37.6478 54.3098 37.2198Z" fill="black"/>
<path fill-rule="evenodd" clip-rule="evenodd" d="M82.6962 30.1948C82.3632 30.7168 82.0312 31.2868 81.6042 31.9038C81.1772 32.5208 80.7032 33.1848 80.1802 33.8498C79.6582 34.5618 79.1831 35.1788 78.6611 35.7008C78.1391 36.2698 77.7122 36.7448 77.2852 37.0768C76.8582 37.4568 76.4782 37.6468 76.1462 37.6468C76.0512 37.6468 76.0032 37.5998 76.0032 37.4568C76.0032 37.2198 76.0982 36.7918 76.2882 36.1748C76.4772 35.5578 76.7632 34.8928 77.0952 34.1338C77.4282 33.3738 77.8071 32.5678 78.2341 31.7608C78.6611 30.9528 79.1362 30.1938 79.6102 29.4818C80.0852 28.8178 80.5602 28.2488 81.0822 27.8208C81.6042 27.3938 82.0792 27.1558 82.5062 27.1558C82.7432 27.1558 82.8862 27.2508 83.0282 27.4408C83.1232 27.6308 83.2182 27.8678 83.2652 28.1048C83.3122 28.3898 83.3602 28.7218 83.3602 29.0548C83.2182 29.2928 83.0282 29.6728 82.6962 30.1948ZM82.8382 37.2198C82.8862 36.7928 83.0282 36.2698 83.2652 35.6538C83.4552 35.0368 83.6922 34.3718 84.0252 33.6118C84.3102 32.8528 84.5942 32.1408 84.9262 31.4278C85.2112 30.7158 85.4962 30.0988 85.7332 29.5298C85.9712 29.0078 86.1131 28.6278 86.2081 28.4378C86.2551 28.2488 86.2081 28.1048 86.1131 27.9628C86.0181 27.8198 85.8762 27.7258 85.7332 27.6308C85.5432 27.5358 85.3542 27.4408 85.2112 27.3928C85.0682 27.3458 84.9262 27.3458 84.8312 27.3928C84.7842 27.4408 84.5942 27.7258 84.2142 28.2948C84.1662 27.8678 83.9762 27.4408 83.6922 26.9658C83.3592 26.5388 82.7432 26.3008 81.8412 26.3008C80.7492 26.3008 79.7521 26.6808 78.8501 27.4408C77.9481 28.1998 77.1412 29.1018 76.4762 30.1938C75.7642 31.2858 75.2422 32.3778 74.9102 33.5638C74.5302 34.7508 74.3402 35.7478 74.3882 36.5548C74.4352 37.5518 74.7671 38.2158 75.3851 38.5488C75.8601 38.7858 76.3822 38.7858 76.9992 38.5018C77.6162 38.2168 78.1861 37.7418 78.8031 37.1248C79.4201 36.5078 79.9902 35.7958 80.6072 34.9888C81.2242 34.1818 81.7461 33.3748 82.2211 32.5678C81.9361 33.2798 81.6992 33.9918 81.5092 34.7038C81.3192 35.4158 81.2242 36.0808 81.2242 36.6498C81.1772 37.2198 81.2712 37.6938 81.5092 38.0738C81.6992 38.5008 82.0311 38.7388 82.5531 38.7858C83.1221 38.8808 83.6922 38.7388 84.2622 38.3588C84.7842 38.0268 85.3541 37.5518 85.8761 36.9348C86.3981 36.3648 86.9202 35.7008 87.4422 34.9888C87.9642 34.2768 88.4392 33.6598 88.8662 33.0428H87.9642C87.2042 34.0398 86.5882 34.8468 86.0652 35.4638C85.5422 36.0808 85.0212 36.6028 84.4512 37.0778C83.8812 37.5998 83.4071 37.8368 83.0271 37.8368C82.8381 37.8368 82.7912 37.6478 82.8382 37.2198Z" fill="black"/>
</svg>
