<svg width="29" height="27" viewBox="0 0 29 27" fill="none" xmlns="http://www.w3.org/2000/svg">
<path fill-rule="evenodd" clip-rule="evenodd" d="M27 3V6.42C27.885 6.945 28.5 7.89 28.5 9V18C28.5 19.11 27.885 20.055 27 20.58V24C27 25.65 25.65 27 24 27H3C1.335 27 0 25.65 0 24V3C0 1.35 1.335 0 3 0H24C25.65 0 27 1.35 27 3ZM15 18H25.5V9H15V18ZM3 24V3H24V6H15C13.35 6 12 7.35 12 9V18C12 19.65 13.35 21 15 21H24V24H3ZM17.25 13.5C17.25 12.2574 18.2574 11.25 19.5 11.25C20.7426 11.25 21.75 12.2574 21.75 13.5C21.75 14.7426 20.7426 15.75 19.5 15.75C18.2574 15.75 17.25 14.7426 17.25 13.5Z" fill="black"/>
</svg>
