<svg width="86" height="21" viewBox="0 0 86 21" fill="none" xmlns="http://www.w3.org/2000/svg">
<path d="M32.511 8.95844C32.2898 10.6172 30.9628 10.6172 29.7464 10.6172H29.0829L29.6359 7.41029C29.6359 7.18912 29.857 7.07854 30.0782 7.07854H30.4099C31.2946 7.07854 32.0687 7.07854 32.511 7.52087C32.511 7.9632 32.511 8.40553 32.511 8.95844ZM31.9581 4.53516H27.2031C26.8713 4.53516 26.6502 4.75632 26.5396 5.08807L24.6597 17.2521C24.6597 17.4733 24.7703 17.6944 25.102 17.6944H27.3136C27.6454 17.6944 27.8665 17.4733 27.9771 17.1415L28.53 13.824C28.53 13.4923 28.8618 13.2711 29.1935 13.2711H30.7417C33.838 13.2711 35.6073 11.723 36.1602 8.73727C36.3814 7.41029 36.1602 6.41505 35.6073 5.64098C34.7226 4.97748 33.5062 4.53516 31.9581 4.53516Z" fill="#263577"/>
<path d="M42.9057 13.3788C42.6845 14.7058 41.6893 15.5905 40.3623 15.5905C39.6988 15.5905 39.1459 15.3693 38.8142 14.927C38.4824 14.4846 38.3718 13.9317 38.4824 13.3788C38.7036 12.0518 39.6988 11.1672 41.0258 11.1672C41.6893 11.1672 42.2422 11.3883 42.5739 11.8307C42.7951 12.1624 43.0163 12.7153 42.9057 13.3788ZM46.002 8.95554H43.7903C43.5692 8.95554 43.4586 9.06612 43.348 9.28729L43.2374 9.95078L43.1269 9.72961C42.6845 9.06612 41.5787 8.73438 40.4729 8.73438C37.9295 8.73438 35.8284 10.6143 35.3861 13.2682C35.1649 14.5952 35.4967 15.8116 36.2708 16.6963C36.9342 17.4704 37.9295 17.8021 39.1459 17.8021C41.1364 17.8021 42.2422 16.4751 42.2422 16.4751L42.1316 17.1386C42.1316 17.3598 42.2422 17.5809 42.5739 17.5809H44.5644C44.8961 17.5809 45.1173 17.3598 45.2279 17.028L46.4443 9.28729C46.4443 9.1767 46.3337 8.95554 46.002 8.95554Z" fill="#263577"/>
<path d="M58.0557 8.95703H55.7335C55.5123 8.95703 55.2911 9.06761 55.1806 9.28878L52.0843 13.9332L50.7573 9.50994C50.6467 9.1782 50.4255 9.06761 50.0938 9.06761H47.8821C47.661 9.06761 47.4398 9.28878 47.5504 9.62052L50.0938 16.9189L47.7716 20.2364C47.5504 20.4576 47.7716 20.8999 48.1033 20.8999H50.4255C50.6467 20.8999 50.8679 20.7893 50.9785 20.5681L58.498 9.62052C58.6086 9.28878 58.3874 8.95703 58.0557 8.95703Z" fill="#263577"/>
<path d="M66.1282 8.95844C65.907 10.6172 64.58 10.6172 63.3636 10.6172H62.7001L63.253 7.41029C63.253 7.18912 63.4742 7.07854 63.6954 7.07854H64.0271C64.9118 7.07854 65.6859 7.07854 66.1282 7.52087C66.2388 7.9632 66.2388 8.40553 66.1282 8.95844ZM65.5753 4.53516H60.8203C60.4885 4.53516 60.2673 4.75632 60.1568 5.08807L58.2769 17.2521C58.2769 17.4733 58.3875 17.6944 58.7192 17.6944H61.152C61.3732 17.6944 61.5943 17.5838 61.5943 17.2521L62.1472 13.824C62.1472 13.4923 62.479 13.2711 62.8107 13.2711H64.3589C67.4552 13.2711 69.2245 11.723 69.7774 8.73727C69.9986 7.41029 69.7774 6.41505 69.2245 5.64098C68.4504 4.97748 67.234 4.53516 65.5753 4.53516Z" fill="#2199D6"/>
<path d="M76.6332 13.3788C76.412 14.7058 75.4168 15.5905 74.0898 15.5905C73.4263 15.5905 72.8734 15.3693 72.5417 14.927C72.21 14.4846 72.0994 13.9317 72.2099 13.3788C72.4311 12.0518 73.4264 11.1672 74.7533 11.1672C75.4168 11.1672 75.9697 11.3883 76.3015 11.8307C76.5226 12.1624 76.7438 12.7153 76.6332 13.3788ZM79.7295 8.95554H77.5179C77.2967 8.95554 77.1861 9.06612 77.0755 9.28729L76.965 9.95078L76.8544 9.72961C76.4121 9.06612 75.3062 8.73438 74.2004 8.73438C71.657 8.73438 69.556 10.6143 69.1136 13.2682C68.8925 14.5952 69.2242 15.8116 69.9983 16.6963C70.6618 17.4704 71.657 17.8021 72.8734 17.8021C74.8639 17.8021 75.9697 16.4751 75.9697 16.4751L75.8592 17.1386C75.8592 17.3598 75.9697 17.5809 76.3015 17.5809H78.2919C78.6237 17.5809 78.8449 17.3598 78.9554 17.028L80.1719 9.28729C80.1719 9.1767 79.9507 8.95554 79.7295 8.95554Z" fill="#2199D6"/>
<path d="M82.3841 4.8669L80.3936 17.2521C80.3936 17.4733 80.5042 17.6944 80.8359 17.6944H82.8264C83.1581 17.6944 83.3793 17.4733 83.4899 17.1415L85.3697 4.97749C85.3697 4.75632 85.2592 4.53516 84.9274 4.53516H82.7158C82.6052 4.53516 82.4946 4.75632 82.3841 4.8669Z" fill="#2199D6"/>
<path d="M4.97628 20.0159L5.30801 17.6937H4.53394H0.663574L3.31755 0.774643C3.31755 0.774643 3.31754 0.664062 3.42812 0.664062H3.53871H10.063C12.1641 0.664062 13.7123 1.10639 14.4863 1.99105C14.8181 2.43338 15.0392 2.8757 15.1498 3.31803C15.2604 3.87094 15.2604 4.42385 15.1498 5.19792V5.64025L15.4816 5.86142C15.8133 5.972 16.0345 6.19316 16.2556 6.41433C16.5874 6.74607 16.8086 7.1884 16.8086 7.74131C16.9191 8.29422 16.9191 8.95772 16.698 9.73179C16.4768 10.6164 16.2556 11.2799 15.9239 11.9434C15.5921 12.4963 15.1498 12.9387 14.7075 13.381C14.2652 13.7127 13.6017 13.9339 13.0488 14.1551C12.3853 14.2656 11.7218 14.3762 10.9477 14.3762H10.3948C10.063 14.3762 9.73131 14.4868 9.39956 14.708C9.1784 14.9291 8.95723 15.2609 8.84665 15.5926V15.8138L8.18315 19.9053V20.0159V20.1265C8.18315 20.1265 8.18315 20.1265 8.07257 20.1265H4.97628V20.0159Z" fill="#263577"/>
<path d="M15.9236 5.19531C15.9236 5.30589 15.9236 5.41648 15.813 5.52706C14.9284 9.95034 12.0532 11.3879 8.29346 11.3879H6.41355C5.97122 11.3879 5.52891 11.7197 5.52891 12.162L4.53366 18.3546L4.3125 20.1239C4.3125 20.4556 4.53366 20.6768 4.75482 20.6768H8.18287C8.6252 20.6768 8.95694 20.345 8.95694 20.0133V19.7921L9.62044 15.8112V15.59C9.73102 15.1477 10.0628 14.9265 10.3945 14.9265H10.9474C14.2649 14.9265 16.8083 13.5995 17.4718 9.72918C17.8035 8.07045 17.5823 6.74346 16.8083 5.85881C16.5871 5.63764 16.2554 5.41648 15.9236 5.19531Z" fill="#2199D6"/>
<path d="M15.0393 4.8669C14.9288 4.8669 14.8182 4.75632 14.597 4.75632C14.4864 4.75632 14.2653 4.64574 14.1547 4.64574C13.6018 4.53515 13.0489 4.53516 12.4959 4.53516H7.40919C7.29861 4.53516 7.18802 4.53515 7.07744 4.64574C6.85627 4.75632 6.63512 4.97748 6.63512 5.19865L5.5293 12.0547V12.2759C5.63988 11.8336 5.97161 11.5018 6.41394 11.5018H8.29385C12.0536 11.5018 14.9288 9.95367 15.8134 5.64098C15.8134 5.53039 15.8134 5.41981 15.924 5.30923C15.7028 5.19865 15.4817 5.08807 15.2605 4.97749C15.1499 4.8669 15.0393 4.8669 15.0393 4.8669Z" fill="#252C5E"/>
<path d="M6.63492 5.19735C6.63492 4.97619 6.85608 4.75502 7.07724 4.64444C7.18782 4.64444 7.29841 4.53386 7.40899 4.53386H12.4958C13.0487 4.53386 13.7122 4.53386 14.1545 4.64444C14.2651 4.64444 14.4862 4.64444 14.5968 4.75503C14.7074 4.75503 14.818 4.86561 15.0391 4.86561C15.1497 4.86561 15.1497 4.86561 15.2603 4.97619C15.4815 5.08677 15.7026 5.19735 15.9238 5.30794C16.145 3.64921 15.9238 2.54338 15.0391 1.54815C14.0439 0.442326 12.2746 0 10.063 0H3.53862C3.09629 0 2.65396 0.331743 2.65396 0.774071L0 17.8037C0 18.1354 0.221164 18.4672 0.55291 18.4672H4.53385L5.5291 12.0534L6.63492 5.19735Z" fill="#263577"/>
</svg>
