<svg width="21" height="21" viewBox="0 0 21 21" fill="none" xmlns="http://www.w3.org/2000/svg">
<circle cx="10.5" cy="10.5" r="9.5" stroke="white" stroke-width="2"/>
<circle cx="10.6367" cy="9.5" r="3.5" stroke="white" stroke-width="2"/>
<path fill-rule="evenodd" clip-rule="evenodd" d="M3.26221 18.1068L4.00008 17C5.25758 14.6211 7.75699 13 10.635 13C13.5131 13 16.0125 14.6211 17.27 17L17.8713 17.9777C16.4167 19.4116 14.5458 20.4244 12.4563 20.8181L15.813 18.4487L15.5664 18.0478L15.5323 17.9923L15.5018 17.9347C14.577 16.1851 12.7428 15 10.635 15C8.52726 15 6.69309 16.1851 5.76825 17.9347L5.72066 18.0247L5.66418 18.1094L5.60854 18.1929L8.40691 20.7913C6.43562 20.3926 4.66458 19.4416 3.26221 18.1068Z" fill="white"/>
</svg>
