<svg width="16" height="16" viewBox="0 0 16 16" fill="none" xmlns="http://www.w3.org/2000/svg">
<path fill-rule="evenodd" clip-rule="evenodd" d="M15.1797 10.2031C14.1499 13.1172 11.3716 15.2031 8.10645 15.2031C4.84131 15.2031 2.06299 13.1172 1.0332 10.2031H15.1797Z" fill="#EF1E23"/>
<path fill-rule="evenodd" clip-rule="evenodd" d="M15.1797 10.2031C15.4561 9.42188 15.6064 8.57812 15.6064 7.70312C15.6064 6.82812 15.4561 5.98438 15.1797 5.20312H1.0332C0.756836 5.98438 0.606445 6.82812 0.606445 7.70312C0.606445 8.57812 0.756836 9.42188 1.0332 10.2031H15.1797Z" fill="#3A59A3"/>
<path fill-rule="evenodd" clip-rule="evenodd" d="M1.0332 5.20312C2.06299 2.28906 4.84131 0.203125 8.10645 0.203125C11.3716 0.203125 14.1499 2.28906 15.1797 5.20312H1.0332Z" fill="#EEEEEE"/>
</svg>
