<svg width="28" height="29" viewBox="0 0 28 29" fill="none" xmlns="http://www.w3.org/2000/svg">
<path fill-rule="evenodd" clip-rule="evenodd" d="M16.0137 11.3751L27.6166 22.978C28.1278 23.4892 28.1278 24.2942 27.6166 24.7798L24.6776 27.7189C24.1792 28.2172 23.3742 28.2172 22.8758 27.7189L11.2345 16.0776C8.26987 17.1893 4.80688 16.5632 2.43006 14.1864C-0.509009 11.2601 -0.777359 6.67255 1.59946 3.42679L6.49365 8.32099L8.30821 6.51921L3.40124 1.59946C6.65977 -0.777359 11.2345 -0.509008 14.1736 2.43007C16.5887 4.85799 17.2021 8.38488 16.0137 11.3751ZM11.6941 12.9332L23.7826 25.0217L24.9072 23.8844L12.8314 11.8087C13.4192 11.0547 13.8026 10.2113 13.9559 9.30407C14.2754 7.52785 13.7515 5.62384 12.3714 4.24375C11.1574 3.04257 9.56009 2.48031 7.97554 2.56976L11.9241 6.51834L6.50601 11.9365L2.55743 7.98788C2.46798 9.57242 3.03023 11.1825 4.2442 12.3837C5.57317 13.7127 7.40051 14.2366 9.13839 13.981C10.0457 13.8532 10.9146 13.5082 11.6941 12.9332Z" fill="black"/>
</svg>
