<svg width="33" height="30" viewBox="0 0 33 30" fill="none" xmlns="http://www.w3.org/2000/svg">
<path d="M15.3569 13.7894L13.6308 7.47839C13.5713 7.26085 13.7642 7.05791 13.9845 7.10621L20.9082 8.62411C21.1452 8.67607 21.2257 8.97322 21.0474 9.1377L15.8496 13.9308C15.6843 14.0833 15.4162 14.0064 15.3569 13.7894Z" fill="black"/>
<path fill-rule="evenodd" clip-rule="evenodd" d="M2.99844 0H29.9844C31.6335 0 32.9828 1.3493 32.9828 2.99844V20.9891C32.9828 22.6382 31.6335 23.9875 29.9844 23.9875H19.4898L22.4883 28.4852V29.9844H10.4945V28.4852L13.493 23.9875H2.99844C1.3493 23.9875 0 22.6382 0 20.9891V2.99844C0 1.3493 1.3493 0 2.99844 0ZM2.99844 17.9907H29.9844V2.99854H2.99844V17.9907Z" fill="black"/>
</svg>
