<svg width="15" height="17" viewBox="0 0 15 17" fill="none" xmlns="http://www.w3.org/2000/svg">
<mask id="path-1-outside-1_26_2338" maskUnits="userSpaceOnUse" x="0" y="0" width="15" height="17" fill="black">
<rect fill="white" width="15" height="17"/>
<path fill-rule="evenodd" clip-rule="evenodd" d="M13.7848 7.00897C13.9111 7.00842 14.0373 7.00226 14.1631 6.9905H14.1652V4.52677C13.2051 4.45922 12.3001 4.06898 11.6086 3.42429C10.9171 2.7796 10.4831 1.92149 10.3824 1H8.17875L8.15573 11.3371C8.15573 12.6054 6.99198 13.6046 5.67419 13.6046C5.04149 13.6046 4.4347 13.3627 3.98731 12.9321C3.53992 12.5015 3.28858 11.9175 3.28858 11.3086C3.28858 10.6997 3.53992 10.1157 3.98731 9.68513C4.4347 9.25455 5.04149 9.01266 5.67419 9.01266C5.74757 9.01266 5.81852 9.02199 5.88952 9.03133C5.914 9.03456 5.93848 9.03778 5.96308 9.04062V6.82379C5.94029 6.82241 5.91754 6.82089 5.89479 6.81936C5.82172 6.81445 5.74859 6.80955 5.67419 6.80955C4.74973 6.80955 3.84602 7.07338 3.07735 7.56769C2.30868 8.06199 1.70958 8.76457 1.3558 9.58657C1.00203 10.4086 0.909461 11.3131 1.08982 12.1857C1.27017 13.0583 1.71534 13.8599 2.36904 14.489C3.02274 15.1182 3.8556 15.5466 4.7623 15.7202C5.66901 15.8938 6.60883 15.8047 7.46293 15.4642C8.31702 15.1237 9.04703 14.5471 9.56064 13.8074C10.0742 13.0676 10.3484 12.1978 10.3484 11.3081V5.22157C10.722 5.77067 11.2317 6.2216 11.8317 6.53365C12.4316 6.8457 13.1029 7.00906 13.7848 7.00897Z"/>
</mask>
<path fill-rule="evenodd" clip-rule="evenodd" d="M13.7848 7.00897C13.9111 7.00842 14.0373 7.00226 14.1631 6.9905H14.1652V4.52677C13.2051 4.45922 12.3001 4.06898 11.6086 3.42429C10.9171 2.7796 10.4831 1.92149 10.3824 1H8.17875L8.15573 11.3371C8.15573 12.6054 6.99198 13.6046 5.67419 13.6046C5.04149 13.6046 4.4347 13.3627 3.98731 12.9321C3.53992 12.5015 3.28858 11.9175 3.28858 11.3086C3.28858 10.6997 3.53992 10.1157 3.98731 9.68513C4.4347 9.25455 5.04149 9.01266 5.67419 9.01266C5.74757 9.01266 5.81852 9.02199 5.88952 9.03133C5.914 9.03456 5.93848 9.03778 5.96308 9.04062V6.82379C5.94029 6.82241 5.91754 6.82089 5.89479 6.81936C5.82172 6.81445 5.74859 6.80955 5.67419 6.80955C4.74973 6.80955 3.84602 7.07338 3.07735 7.56769C2.30868 8.06199 1.70958 8.76457 1.3558 9.58657C1.00203 10.4086 0.909461 11.3131 1.08982 12.1857C1.27017 13.0583 1.71534 13.8599 2.36904 14.489C3.02274 15.1182 3.8556 15.5466 4.7623 15.7202C5.66901 15.8938 6.60883 15.8047 7.46293 15.4642C8.31702 15.1237 9.04703 14.5471 9.56064 13.8074C10.0742 13.0676 10.3484 12.1978 10.3484 11.3081V5.22157C10.722 5.77067 11.2317 6.2216 11.8317 6.53365C12.4316 6.8457 13.1029 7.00906 13.7848 7.00897Z" fill="#8E8E8E"/>
<path d="M14.1631 6.9905V6.7905H14.1537L14.1444 6.79137L14.1631 6.9905ZM13.7848 7.00897L13.7848 7.20897L13.7857 7.20896L13.7848 7.00897ZM14.1652 6.9905V7.1905H14.3652V6.9905H14.1652ZM14.1652 4.52677H14.3652V4.34035L14.1793 4.32726L14.1652 4.52677ZM11.6086 3.42429L11.4722 3.57058L11.6086 3.42429ZM10.3824 1L10.5812 0.978277L10.5617 0.8H10.3824V1ZM8.17875 1V0.8H7.9792L7.97875 0.999555L8.17875 1ZM8.15573 11.3371L7.95573 11.3367V11.3371H8.15573ZM3.98731 12.9321L3.84862 13.0762H3.84863L3.98731 12.9321ZM3.98731 9.68513L3.84863 9.54103H3.84862L3.98731 9.68513ZM5.88952 9.03133L5.86343 9.22963H5.86343L5.88952 9.03133ZM5.96308 9.04062L5.94013 9.2393L6.16308 9.26504V9.04062H5.96308ZM5.96308 6.82379H6.16308V6.63552L5.97515 6.62416L5.96308 6.82379ZM5.89479 6.81936L5.88139 7.01891H5.88139L5.89479 6.81936ZM3.07735 7.56769L2.96917 7.39947L3.07735 7.56769ZM1.3558 9.58657L1.53951 9.66564H1.53951L1.3558 9.58657ZM1.08982 12.1857L0.893955 12.2262H0.893955L1.08982 12.1857ZM2.36904 14.489L2.23035 14.6331L2.36904 14.489ZM4.7623 15.7202L4.7247 15.9166L4.7623 15.7202ZM7.46293 15.4642L7.38887 15.2784L7.46293 15.4642ZM9.56064 13.8074L9.39635 13.6933L9.56064 13.8074ZM10.3484 5.22157L10.5137 5.10908L10.1484 4.57204V5.22157H10.3484ZM11.8317 6.53365L11.924 6.35622H11.924L11.8317 6.53365ZM14.1444 6.79137C14.0246 6.80257 13.9043 6.80845 13.784 6.80897L13.7857 7.20896C13.9179 7.20839 14.0501 7.20194 14.1817 7.18963L14.1444 6.79137ZM14.1652 6.7905H14.1631V7.1905H14.1652V6.7905ZM13.9652 4.52677V6.9905H14.3652V4.52677H13.9652ZM11.4722 3.57058C12.1979 4.2471 13.1463 4.65557 14.1512 4.72628L14.1793 4.32726C13.2639 4.26286 12.4023 3.89086 11.745 3.278L11.4722 3.57058ZM10.1836 1.02172C10.2896 1.99191 10.7464 2.89391 11.4722 3.57058L11.745 3.278C11.0878 2.6653 10.6765 1.85108 10.5812 0.978277L10.1836 1.02172ZM8.17875 1.2H10.3824V0.8H8.17875V1.2ZM8.35573 11.3376L8.37875 1.00045L7.97875 0.999555L7.95573 11.3367L8.35573 11.3376ZM5.67419 13.8046C7.08124 13.8046 8.35573 12.7359 8.35573 11.3371H7.95573C7.95573 12.4749 6.90271 13.4046 5.67419 13.4046V13.8046ZM3.84863 13.0762C4.33406 13.5434 4.99087 13.8046 5.67419 13.8046V13.4046C5.09211 13.4046 4.53535 13.182 4.126 12.788L3.84863 13.0762ZM3.08858 11.3086C3.08858 11.9731 3.36293 12.6088 3.84862 13.0762L4.126 12.788C3.71692 12.3943 3.48858 11.862 3.48858 11.3086H3.08858ZM3.84862 9.54103C3.36293 10.0085 3.08858 10.6441 3.08858 11.3086H3.48858C3.48858 10.7553 3.71692 10.2229 4.126 9.82923L3.84862 9.54103ZM5.67419 8.81266C4.99087 8.81266 4.33406 9.07383 3.84863 9.54103L4.126 9.82923C4.53535 9.43527 5.09211 9.21266 5.67419 9.21266V8.81266ZM5.91561 8.83304C5.84656 8.82396 5.76277 8.81266 5.67419 8.81266V9.21266C5.73236 9.21266 5.79048 9.22003 5.86343 9.22963L5.91561 8.83304ZM5.98602 8.84194C5.96326 8.83931 5.94035 8.8363 5.91561 8.83304L5.86343 9.22963C5.88765 9.23281 5.9137 9.23624 5.94013 9.2393L5.98602 8.84194ZM5.76308 6.82379V9.04062H6.16308V6.82379H5.76308ZM5.88139 7.01891C5.90404 7.02043 5.92745 7.022 5.951 7.02343L5.97515 6.62416C5.95314 6.62282 5.93105 6.62134 5.90818 6.61981L5.88139 7.01891ZM5.67419 7.00954C5.7408 7.00954 5.80728 7.01393 5.88139 7.01891L5.90818 6.61981C5.83616 6.61497 5.75639 6.60955 5.67419 6.60955V7.00954ZM3.18553 7.73591C3.92154 7.2626 4.78761 7.00954 5.67419 7.00954V6.60955C4.71184 6.60955 3.7705 6.88416 2.96917 7.39947L3.18553 7.73591ZM1.53951 9.66564C1.8772 8.88103 2.4496 8.20916 3.18553 7.73591L2.96917 7.39947C2.16777 7.91482 1.54197 8.64811 1.1721 9.50751L1.53951 9.66564ZM1.28568 12.1452C1.11366 11.3129 1.20187 10.4502 1.53951 9.66564L1.1721 9.50751C0.802183 10.367 0.705263 11.3132 0.893955 12.2262L1.28568 12.1452ZM2.50773 14.3449C1.88254 13.7432 1.45771 12.9776 1.28568 12.1452L0.893955 12.2262C1.08263 13.1391 1.54814 13.9766 2.23035 14.6331L2.50773 14.3449ZM4.79991 15.5238C3.93055 15.3573 3.133 14.9467 2.50773 14.3449L2.23035 14.6331C2.91248 15.2896 3.78065 15.7359 4.7247 15.9166L4.79991 15.5238ZM7.38887 15.2784C6.57037 15.6047 5.6693 15.6902 4.79991 15.5238L4.7247 15.9166C5.66872 16.0974 6.6473 16.0047 7.53699 15.65L7.38887 15.2784ZM9.39635 13.6933C8.90562 14.4001 8.20731 14.9522 7.38887 15.2784L7.53699 15.65C8.42674 15.2953 9.18844 14.6941 9.72493 13.9214L9.39635 13.6933ZM10.1484 11.3081C10.1484 12.1565 9.88701 12.9866 9.39635 13.6933L9.72493 13.9214C10.2615 13.1486 10.5484 12.2391 10.5484 11.3081H10.1484ZM10.1484 5.22157V11.3081H10.5484V5.22157H10.1484ZM11.924 6.35622C11.3528 6.05914 10.8683 5.6303 10.5137 5.10908L10.183 5.33407C10.5756 5.91105 11.1106 6.38406 11.7394 6.71109L11.924 6.35622ZM13.7848 6.80897C13.1347 6.80905 12.4951 6.65331 11.924 6.35622L11.7394 6.71109C12.3681 7.0381 13.071 7.20906 13.7848 7.20896L13.7848 6.80897Z" fill="#8E8E8E" mask="url(#path-1-outside-1_26_2338)"/>
</svg>
