<svg width="14" height="16" viewBox="0 0 14 16" fill="none" xmlns="http://www.w3.org/2000/svg">
<mask id="path-1-outside-1_342_1275" maskUnits="userSpaceOnUse" x="0" y="-0.640625" width="14" height="16" fill="black">
<rect fill="white" y="-0.640625" width="14" height="16"/>
<path fill-rule="evenodd" clip-rule="evenodd" d="M13.6507 6.29553V3.8323C12.7766 3.73478 11.9582 3.35747 11.3242 2.75681C10.6512 2.11927 10.2288 1.27066 10.1308 0.359375H7.98631L7.9639 10.582C7.9639 11.8362 6.83135 12.8243 5.54889 12.8243C4.93315 12.8243 4.34262 12.5851 3.90723 12.1593C3.47183 11.7335 3.22723 11.156 3.22723 10.5538C3.22723 9.95163 3.47183 9.37411 3.90723 8.94831C4.34262 8.5225 4.93315 8.28328 5.54889 8.28328C5.62029 8.28328 5.68934 8.29252 5.75844 8.30175C5.78226 8.30494 5.80609 8.30813 5.83003 8.31093V6.11866C5.80785 6.1173 5.78571 6.11579 5.76356 6.11428C5.69245 6.10943 5.62129 6.10457 5.54889 6.10457C4.6492 6.10457 3.76972 6.36549 3.02166 6.85432C2.2736 7.34315 1.69056 8.03795 1.34627 8.85084C1.00197 9.66374 0.911888 10.5582 1.08741 11.4212C1.26293 12.2842 1.69617 13.0769 2.33234 13.699C2.96851 14.3212 3.77905 14.7449 4.66144 14.9165C5.54384 15.0882 6.45847 15.0001 7.28967 14.6634C8.12087 14.3267 8.83131 13.7565 9.33115 13.0249C9.83098 12.2933 10.0978 11.4332 10.0978 10.5533V4.53419C10.4613 5.07721 10.9574 5.52314 11.5413 5.83174C12.1252 6.14033 12.7784 6.30188 13.4421 6.30178C13.5117 6.30148 13.5812 6.29939 13.6507 6.29553Z"/>
</mask>
<path fill-rule="evenodd" clip-rule="evenodd" d="M13.6507 6.29553V3.8323C12.7766 3.73478 11.9582 3.35747 11.3242 2.75681C10.6512 2.11927 10.2288 1.27066 10.1308 0.359375H7.98631L7.9639 10.582C7.9639 11.8362 6.83135 12.8243 5.54889 12.8243C4.93315 12.8243 4.34262 12.5851 3.90723 12.1593C3.47183 11.7335 3.22723 11.156 3.22723 10.5538C3.22723 9.95163 3.47183 9.37411 3.90723 8.94831C4.34262 8.5225 4.93315 8.28328 5.54889 8.28328C5.62029 8.28328 5.68934 8.29252 5.75844 8.30175C5.78226 8.30494 5.80609 8.30813 5.83003 8.31093V6.11866C5.80785 6.1173 5.78571 6.11579 5.76356 6.11428C5.69245 6.10943 5.62129 6.10457 5.54889 6.10457C4.6492 6.10457 3.76972 6.36549 3.02166 6.85432C2.2736 7.34315 1.69056 8.03795 1.34627 8.85084C1.00197 9.66374 0.911888 10.5582 1.08741 11.4212C1.26293 12.2842 1.69617 13.0769 2.33234 13.699C2.96851 14.3212 3.77905 14.7449 4.66144 14.9165C5.54384 15.0882 6.45847 15.0001 7.28967 14.6634C8.12087 14.3267 8.83131 13.7565 9.33115 13.0249C9.83098 12.2933 10.0978 11.4332 10.0978 10.5533V4.53419C10.4613 5.07721 10.9574 5.52314 11.5413 5.83174C12.1252 6.14033 12.7784 6.30188 13.4421 6.30178C13.5117 6.30148 13.5812 6.29939 13.6507 6.29553Z" fill="#222222"/>
<path d="M13.6507 3.8323H13.8507V3.65337L13.6729 3.63353L13.6507 3.8323ZM13.6507 6.29553L13.6618 6.49522L13.8507 6.48472V6.29553H13.6507ZM11.3242 2.75681L11.1866 2.902L11.3242 2.75681ZM10.1308 0.359375L10.3297 0.337994L10.3105 0.159375H10.1308V0.359375ZM7.98631 0.359375V0.159375H7.78674L7.78631 0.358937L7.98631 0.359375ZM7.9639 10.582L7.7639 10.5816V10.582H7.9639ZM3.90723 12.1593L3.76739 12.3023H3.76739L3.90723 12.1593ZM3.90723 8.94831L3.76739 8.80532H3.76739L3.90723 8.94831ZM5.75844 8.30175L5.78495 8.10352H5.78495L5.75844 8.30175ZM5.83003 8.31093L5.80671 8.50957L6.03003 8.53578V8.31093H5.83003ZM5.83003 6.11866H6.03003V5.93058L5.8423 5.91904L5.83003 6.11866ZM5.76356 6.11428L5.74995 6.31381H5.74995L5.76356 6.11428ZM3.02166 6.85432L3.13107 7.02174L3.02166 6.85432ZM1.34627 8.85084L1.1621 8.77284H1.1621L1.34627 8.85084ZM1.08741 11.4212L0.89142 11.4611H0.89142L1.08741 11.4212ZM2.33234 13.699L2.1925 13.842L2.33234 13.699ZM7.28967 14.6634L7.36476 14.8487L7.28967 14.6634ZM9.33115 13.0249L9.16601 12.912L9.33115 13.0249ZM10.0978 4.53419L10.264 4.42292L9.89777 3.87596V4.53419H10.0978ZM11.5413 5.83174L11.6347 5.65492L11.6347 5.65492L11.5413 5.83174ZM13.4421 6.30178L13.4421 6.50179L13.443 6.50178L13.4421 6.30178ZM13.4507 3.8323V6.29553H13.8507V3.8323H13.4507ZM11.1866 2.902C11.8527 3.53299 12.7118 3.92878 13.6285 4.03106L13.6729 3.63353C12.8415 3.54077 12.0638 3.18196 11.4617 2.61162L11.1866 2.902ZM9.93199 0.380756C10.0351 1.33987 10.4796 2.23219 11.1866 2.902L11.4617 2.61162C10.8228 2.00634 10.4225 1.20145 10.3297 0.337994L9.93199 0.380756ZM7.98631 0.559375H10.1308V0.159375H7.98631V0.559375ZM8.1639 10.5824L8.18631 0.359813L7.78631 0.358937L7.7639 10.5816L8.1639 10.5824ZM5.54889 13.0243C6.92377 13.0243 8.1639 11.9639 8.1639 10.582H7.7639C7.7639 11.7085 6.73892 12.6243 5.54889 12.6243V13.0243ZM3.76739 12.3023C4.24062 12.7651 4.88152 13.0243 5.54889 13.0243V12.6243C4.98477 12.6243 4.44463 12.4051 4.04707 12.0163L3.76739 12.3023ZM3.02723 10.5538C3.02723 11.2105 3.29401 11.8394 3.76739 12.3023L4.04707 12.0163C3.64966 11.6277 3.42723 11.1015 3.42723 10.5538H3.02723ZM3.76739 8.80532C3.29401 9.26828 3.02723 9.89713 3.02723 10.5538H3.42723C3.42723 10.0061 3.64966 9.47995 4.04707 9.09129L3.76739 8.80532ZM5.54889 8.08328C4.88152 8.08328 4.24062 8.34251 3.76739 8.80532L4.04707 9.09129C4.44463 8.70249 4.98477 8.48328 5.54889 8.48328V8.08328ZM5.78495 8.10352C5.71783 8.09454 5.63574 8.08328 5.54889 8.08328V8.48328C5.60485 8.48328 5.66085 8.49049 5.73194 8.49999L5.78495 8.10352ZM5.85334 8.1123C5.83127 8.10971 5.80903 8.10674 5.78495 8.10352L5.73193 8.49999C5.7555 8.50314 5.78092 8.50654 5.80671 8.50957L5.85334 8.1123ZM5.63003 6.11866V8.31093H6.03003V6.11866H5.63003ZM5.74995 6.31381C5.77199 6.31532 5.7948 6.31687 5.81775 6.31828L5.8423 5.91904C5.8209 5.91772 5.79942 5.91626 5.77716 5.91474L5.74995 6.31381ZM5.54889 6.30457C5.61337 6.30457 5.67778 6.30889 5.74995 6.31381L5.77717 5.91474C5.70712 5.90996 5.62921 5.90457 5.54889 5.90457V6.30457ZM3.13107 7.02174C3.84636 6.55432 4.68778 6.30457 5.54889 6.30457V5.90457C4.61062 5.90457 3.69308 6.17665 2.91226 6.68689L3.13107 7.02174ZM1.53043 8.92884C1.85903 8.15299 2.41582 7.48913 3.13107 7.02174L2.91226 6.68689C2.13139 7.19717 1.52209 7.9229 1.1621 8.77284L1.53043 8.92884ZM1.28339 11.3813C1.11595 10.5581 1.20184 9.70465 1.53043 8.92884L1.1621 8.77284C0.802097 9.62283 0.707829 10.5584 0.89142 11.4611L1.28339 11.3813ZM2.47218 13.556C1.8643 12.9615 1.45085 12.2046 1.28339 11.3813L0.89142 11.4611C1.07501 12.3637 1.52803 13.1922 2.1925 13.842L2.47218 13.556ZM4.69963 14.7202C3.85519 14.5559 3.08011 14.1506 2.47218 13.556L2.1925 13.842C2.85692 14.4918 3.70291 14.9338 4.62325 15.1129L4.69963 14.7202ZM7.21458 14.478C6.41937 14.8001 5.5441 14.8845 4.69963 14.7202L4.62325 15.1129C5.54358 15.2919 6.49757 15.2 7.36476 14.8487L7.21458 14.478ZM9.16601 12.912C8.68868 13.6107 8.00975 14.1559 7.21458 14.478L7.36476 14.8487C8.23199 14.4974 8.97394 13.9022 9.49628 13.1377L9.16601 12.912ZM9.89777 10.5533C9.89777 11.3926 9.6433 12.2135 9.16601 12.912L9.49628 13.1377C10.0187 12.3731 10.2978 11.4737 10.2978 10.5533H9.89777ZM9.89777 4.53419V10.5533H10.2978V4.53419H9.89777ZM11.6347 5.65492C11.0799 5.36164 10.6089 4.9381 10.264 4.42292L9.93158 4.64546C10.3138 5.21632 10.835 5.68465 11.4478 6.00856L11.6347 5.65492ZM13.4421 6.10178C12.8108 6.10187 12.1897 5.94821 11.6347 5.65492L11.4478 6.00856C12.0607 6.33246 12.746 6.50188 13.4421 6.50178L13.4421 6.10178ZM13.6396 6.09584C13.5735 6.09951 13.5074 6.1015 13.4412 6.10179L13.443 6.50178C13.516 6.50146 13.5889 6.49927 13.6618 6.49522L13.6396 6.09584Z" fill="white" mask="url(#path-1-outside-1_342_1275)"/>
</svg>
