<svg width="22" height="22" viewBox="0 0 22 22" fill="none" xmlns="http://www.w3.org/2000/svg">
<path d="M0.0918432 10.901C0.0911563 12.8221 0.595379 14.6976 1.55414 16.351L0 22L5.80692 20.4842C7.40685 21.3521 9.2082 21.8103 11.0415 21.8109H11.0462C17.0834 21.8109 21.9974 16.9203 22 10.9096C22.0011 7.99664 20.8628 5.25798 18.7945 3.19721C16.7265 1.13673 13.9763 0.00136755 11.0457 0C5.00819 0 0.0941865 4.88998 0.0915699 10.901L0.0918432 10.901ZM11.046 21.8109H11.0461H11.046C11.0459 21.8109 11.0458 21.8109 11.046 21.8109Z" fill="#1C1B1B"/>
<path fill-rule="evenodd" clip-rule="evenodd" d="M7.79667 6.46458C7.5939 6.02277 7.38054 6.01393 7.18768 6.00616C7.02985 5.99958 6.84933 6.00001 6.66902 6.00001C6.48849 6.00001 6.19528 6.0664 5.94735 6.33188C5.69919 6.59737 5 7.23912 5 8.54431C5 9.84963 5.96995 11.1109 6.10508 11.288C6.24045 11.4649 7.97745 14.229 10.7282 15.2923C13.0144 16.176 13.4797 16.0003 13.9759 15.956C14.4721 15.9118 15.5772 15.3145 15.8027 14.695C16.0282 14.0756 16.0282 13.5446 15.9606 13.4337C15.893 13.3232 15.7125 13.2568 15.4418 13.1242C15.1711 12.9915 13.8405 12.3497 13.5925 12.2611C13.3443 12.1727 13.1639 12.1285 12.9834 12.3941C12.803 12.6594 12.2846 13.2568 12.1267 13.4337C11.9688 13.611 11.8109 13.6331 11.5403 13.5005C11.2695 13.3673 10.3978 13.0875 9.36378 12.1838C8.55918 11.4806 8.01604 10.6123 7.85808 10.3467C7.70024 10.0814 7.84123 9.93769 7.97693 9.80541C8.09853 9.68654 8.24767 9.49566 8.38304 9.34083C8.51807 9.18591 8.56313 9.07535 8.65334 8.89839C8.74366 8.72132 8.6985 8.56639 8.63086 8.43369C8.56313 8.301 8.03717 6.98909 7.79651 6.4645" fill="white"/>
</svg>
